<!DOCTYPE svg PUBLIC "-//W3C//DTD SVG 20010904//EN" "http://www.w3.org/TR/2001/REC-SVG-20010904/DTD/svg10.dtd">
<svg version="1.0" xmlns="http://www.w3.org/2000/svg" width="300px" height="300px" viewBox="0 0 3000 3000" preserveAspectRatio="xMidYMid meet">
<g id="layer101" fill="#111211" stroke="none">
<path d="M0 1500 l0 -1500 1500 0 1500 0 0 1500 0 1500 -1500 0 -1500 0 0 -1500z"/>
</g>
<g id="layer102" fill="#231b1e" stroke="none">
<path d="M0 1500 l0 -1500 1500 0 1500 0 0 1500 0 1500 -1500 0 -1500 0 0 -1500z m1608 704 c368 -215 636 -510 686 -755 14 -68 5 -126 -25 -179 -10 -18 -14 -59 -13 -145 1 -129 21 -219 84 -368 15 -37 25 -67 22 -67 -4 0 -31 7 -60 14 -82 22 -189 29 -281 17 -91 -12 -101 -17 -294 -154 -121 -85 -175 -110 -244 -109 -85 1 -145 28 -306 136 -191 129 -181 124 -274 137 -72 10 -201 1 -249 -18 -9 -3 -4 19 17 68 17 41 42 121 56 179 31 129 28 245 -10 353 -21 58 -23 74 -15 120 45 248 304 540 674 761 60 36 115 66 122 66 8 0 57 -25 110 -56z"/>
<path d="M1405 2187 c-178 -104 -290 -192 -433 -341 -146 -153 -219 -277 -242 -409 -11 -62 -10 -72 15 -146 31 -94 35 -194 11 -308 -15 -69 -50 -181 -68 -216 -8 -16 -3 -17 84 -11 164 11 228 -10 398 -132 156 -112 217 -139 310 -139 91 0 115 11 280 130 172 124 184 129 320 133 75 2 138 -2 182 -11 l66 -14 -25 66 c-45 117 -65 204 -70 308 -5 91 -3 111 21 187 14 46 26 97 26 113 0 66 -57 205 -123 303 -72 105 -293 314 -432 407 -55 37 -221 134 -227 133 -2 -1 -43 -24 -93 -53z m204 -64 c116 -72 228 -155 315 -235 153 -141 285 -343 305 -466 l8 -52 -358 0 -359 0 0 400 c0 220 3 400 7 400 3 0 40 -21 82 -47z m-119 -1187 l0 -413 -47 8 c-57 11 -140 56 -253 137 -132 95 -183 119 -280 131 -47 6 -100 8 -119 5 -32 -6 -34 -6 -27 17 45 160 58 238 54 329 -3 52 -12 115 -21 139 -9 25 -14 48 -11 53 3 4 162 8 355 8 l349 0 0 -414z"/>
<path d="M1732 1807 c-20 -21 -22 -34 -22 -130 0 -65 -4 -107 -10 -107 -5 0 -10 -7 -10 -15 0 -11 12 -15 50 -15 38 0 50 4 50 15 0 8 -7 15 -15 15 -13 0 -15 16 -13 108 l3 107 50 0 50 0 3 -107 c2 -92 0 -108 -13 -108 -8 0 -15 -7 -15 -15 0 -11 12 -15 45 -15 33 0 45 4 45 15 0 8 -4 15 -10 15 -6 0 -10 43 -10 108 0 100 -2 110 -23 130 -34 32 -125 31 -155 -1z"/>
<path d="M1100 1205 c0 -8 7 -15 15 -15 12 0 15 -19 15 -115 0 -96 -3 -115 -15 -115 -8 0 -15 -7 -15 -15 0 -12 13 -15 55 -15 42 0 55 3 55 15 0 8 -7 15 -15 15 -12 0 -15 19 -15 115 0 96 3 115 15 115 8 0 15 7 15 15 0 12 -13 15 -55 15 -42 0 -55 -3 -55 -15z"/>
</g>
<g id="layer103" fill="#2b1f25" stroke="none">
<path d="M0 1500 l0 -1500 1500 0 1500 0 0 1500 0 1500 -1500 0 -1500 0 0 -1500z m1620 697 c305 -181 533 -407 635 -630 54 -117 60 -194 23 -279 -20 -45 -23 -69 -22 -163 1 -123 20 -209 78 -351 19 -46 32 -84 29 -84 -3 0 -31 6 -62 14 -85 21 -187 27 -278 17 -91 -11 -102 -17 -269 -136 -55 -40 -119 -82 -141 -94 -134 -68 -235 -42 -463 119 -63 45 -127 88 -143 96 -63 33 -239 37 -344 8 -21 -6 -21 -4 11 77 53 137 71 221 71 339 -1 87 -5 117 -27 178 -24 68 -25 76 -13 138 34 184 220 427 469 613 109 82 302 201 326 201 8 0 62 -28 120 -63z m-421 -13 c-14 -50 -68 -136 -81 -128 -12 8 -2 68 18 105 13 26 63 73 70 66 2 -2 -1 -21 -7 -43z m650 2 c13 -21 21 -50 21 -77 l0 -44 -21 25 c-23 29 -58 99 -59 118 0 25 39 11 59 -22z m-799 -10 c0 -2 -12 -11 -26 -21 -22 -14 -28 -15 -35 -4 -15 24 -10 29 26 29 19 0 35 -2 35 -4z m921 -101 c10 -22 19 -51 19 -64 l0 -24 -24 22 c-23 22 -54 84 -71 141 -7 25 -7 25 25 -5 18 -16 41 -48 51 -70z m-905 -18 c-31 -64 -62 -98 -71 -75 -8 21 30 105 62 134 38 36 42 12 9 -59z m981 -6 c38 -34 70 -131 44 -131 -17 0 -91 127 -91 156 0 11 19 1 47 -25z m-1077 -38 c-18 -54 -70 -127 -82 -115 -17 17 12 94 49 130 20 18 38 31 40 28 3 -3 -1 -22 -7 -43z m-165 -27 c-28 -23 -68 -37 -104 -36 -22 1 89 59 114 59 17 1 16 -3 -10 -23z m1385 -101 c0 -25 -2 -45 -5 -45 -9 0 -53 95 -59 130 l-7 35 35 -37 c30 -32 36 -45 36 -83z m25 97 c-3 -3 -11 0 -18 7 -9 10 -8 11 6 5 10 -3 15 -9 12 -12z m-1370 -77 c-13 -30 -28 -62 -34 -72 -9 -17 -10 -17 -16 0 -11 28 4 83 30 111 38 41 48 23 20 -39z m1540 -15 c16 -17 23 -30 17 -30 -37 0 -147 64 -137 80 9 15 91 -19 120 -50z m-1688 4 c-29 -25 -114 -60 -124 -51 -12 13 30 47 81 66 61 23 79 16 43 -15z m1567 -26 c18 -32 19 -40 7 -79 l-14 -44 -14 40 c-17 48 -22 126 -8 122 6 -2 19 -19 29 -39z m-1509 -35 c-4 -25 -11 -58 -17 -72 l-10 -26 -14 30 c-15 34 -10 71 13 98 27 29 36 20 28 -30z m1645 -18 c27 -14 93 -85 86 -92 -2 -2 -26 7 -54 19 -36 16 -55 32 -66 55 -17 37 -10 41 34 18z m-1770 -13 c0 -18 -58 -72 -92 -86 -41 -16 -43 -15 -27 15 20 39 119 98 119 71z m1720 -62 c0 -15 -8 -38 -18 -51 l-19 -22 -7 27 c-4 16 -4 49 0 74 l7 46 18 -23 c11 -13 19 -36 19 -51z m-1668 -27 c0 -60 -15 -75 -36 -35 -20 39 -20 56 1 88 14 22 17 24 25 9 6 -9 10 -37 10 -62z m1815 -81 c14 -24 23 -45 21 -47 -6 -6 -67 40 -83 62 -7 10 -16 29 -20 42 l-7 23 32 -18 c17 -11 43 -38 57 -62z m-1937 17 c-12 -29 -88 -95 -98 -85 -9 10 40 82 70 103 39 27 45 23 28 -18z m1826 -32 c-7 -18 -21 -39 -31 -47 -17 -14 -18 -13 -13 28 4 23 14 55 24 69 l17 27 8 -23 c6 -14 4 -34 -5 -54z m-1766 26 c17 -36 30 -103 19 -103 -19 0 -49 55 -49 91 0 46 12 50 30 12z m1787 -130 c-18 -34 -57 -71 -57 -54 0 16 29 72 49 95 14 15 16 16 19 3 2 -9 -3 -28 -11 -44z m71 35 c22 -25 42 -69 42 -95 0 -23 -44 19 -64 62 -27 57 -17 73 22 33z m-1938 -13 c0 -24 -25 -67 -54 -94 -21 -19 -26 -21 -26 -8 0 26 20 70 42 95 25 26 38 28 38 7z m85 -68 c15 -37 15 -38 -5 -27 -25 13 -47 46 -56 85 l-6 30 25 -25 c15 -14 33 -42 42 -63z m1795 -43 c0 -18 -68 -90 -77 -81 -8 8 24 57 51 79 26 22 26 22 26 2z m73 -59 c8 -23 11 -48 7 -55 -10 -17 -50 49 -57 97 -6 38 -6 38 15 19 11 -10 27 -37 35 -61z m-1961 -6 c-11 -24 -27 -53 -36 -64 -15 -20 -15 -19 -16 7 0 53 43 129 63 109 5 -5 1 -26 -11 -52z m95 0 c14 -22 23 -42 21 -45 -9 -9 -88 72 -88 90 0 26 35 3 67 -45z m1766 -71 c-19 -32 -69 -66 -80 -54 -8 8 26 45 62 67 39 25 40 24 18 -13z m57 -23 c13 -30 17 -52 11 -67 l-8 -21 -16 24 c-15 21 -25 109 -12 109 3 0 14 -20 25 -45z m-1890 -42 c-12 -46 -27 -70 -36 -61 -11 12 -7 51 10 93 15 34 19 37 27 23 7 -12 6 -31 -1 -55z m78 33 c20 -19 34 -37 31 -40 -8 -8 -79 22 -79 33 0 5 -3 16 -6 25 -10 26 14 18 54 -18z m1752 -76 c0 -29 -52 -102 -64 -90 -9 10 12 81 30 101 24 27 34 24 34 -11z m-1763 -12 c24 -25 42 -98 25 -98 -20 0 -62 62 -62 91 0 35 9 37 37 7z"/>
<path d="M1401 2185 c-139 -81 -241 -158 -362 -273 -181 -172 -285 -331 -309 -473 -10 -59 -9 -72 10 -130 12 -35 25 -86 30 -113 14 -91 -19 -283 -70 -402 l-19 -44 97 6 c161 11 221 -9 392 -132 132 -94 210 -133 283 -141 85 -9 129 9 267 107 69 50 152 104 185 122 56 30 68 32 175 36 75 2 138 -2 182 -11 l67 -14 -21 51 c-57 141 -71 206 -72 341 -1 115 2 137 23 194 23 59 24 69 13 130 -13 79 -72 202 -140 291 -65 86 -259 271 -359 343 -69 49 -265 168 -275 167 -2 -1 -45 -25 -97 -55z m206 -60 c184 -112 348 -251 459 -389 76 -95 151 -239 163 -313 l8 -53 -358 0 -359 0 0 400 c0 220 3 400 6 400 4 0 40 -20 81 -45z m-342 -365 c36 35 65 60 65 54 0 -5 -5 -15 -12 -22 -9 -9 -9 -12 0 -13 7 -1 17 -2 24 -3 6 0 13 -7 16 -15 3 -8 0 -11 -6 -8 -12 8 -35 -17 -24 -28 4 -4 0 -6 -8 -3 -8 3 -14 12 -12 21 5 31 -16 25 -57 -17 l-42 -42 34 -30 c18 -17 38 -29 45 -26 18 6 15 -1 -19 -39 -29 -33 -30 -33 -20 -6 9 24 7 31 -19 60 l-30 32 -30 -32 c-26 -29 -28 -36 -19 -60 10 -27 9 -27 -20 6 -34 38 -37 45 -19 39 7 -3 27 9 45 26 l34 30 -42 42 c-41 42 -62 48 -57 17 2 -9 -3 -18 -11 -21 -8 -2 -11 0 -8 6 8 12 -17 35 -28 24 -4 -4 -6 0 -3 8 3 8 10 16 16 16 7 1 17 2 24 3 9 1 9 4 0 13 -7 7 -12 17 -12 22 0 6 29 -19 65 -54 l65 -64 65 64z m-178 -127 c-4 -3 -10 -3 -14 0 -3 4 0 7 7 7 7 0 10 -3 7 -7z m240 0 c-4 -3 -10 -3 -14 0 -3 4 0 7 7 7 7 0 10 -3 7 -7z m-267 -7 c0 -3 -5 -8 -12 -12 -7 -4 -8 -3 -4 4 7 12 16 16 16 8z m295 -6 c3 -5 4 -10 1 -10 -3 0 -8 5 -11 10 -3 6 -4 10 -1 10 3 0 8 -4 11 -10z m-269 -97 c-8 -9 -34 11 -45 33 -17 38 -14 38 19 3 16 -18 28 -34 26 -36z m273 34 c-10 -23 -37 -43 -45 -34 -4 4 50 65 54 62 1 -1 -3 -14 -9 -28z m-218 -30 c-10 -9 -11 -8 -5 6 3 10 9 15 12 12 3 -3 0 -11 -7 -18z m123 7 c3 -8 2 -12 -4 -9 -6 3 -10 10 -10 16 0 14 7 11 14 -7z m226 -599 l0 -414 -32 5 c-54 9 -167 69 -273 145 -55 39 -121 82 -147 95 -51 26 -192 47 -252 37 l-36 -6 19 56 c53 154 64 333 27 436 -9 24 -13 47 -10 52 3 5 160 9 355 9 l349 0 0 -415z m620 209 c0 -13 -82 -124 -92 -124 -7 0 -6 5 3 13 8 6 27 31 42 55 32 49 24 52 -53 22 -62 -24 -88 -25 -119 -4 l-23 16 4 -59 c2 -47 0 -59 -12 -59 -12 0 -14 12 -12 59 l4 59 -23 -16 c-31 -21 -57 -20 -119 4 -73 29 -86 27 -62 -7 25 -36 38 -61 25 -48 -16 17 -63 83 -63 89 0 3 113 6 250 6 138 0 250 -2 250 -6z m-405 -122 c-3 -3 -11 0 -18 7 -9 10 -8 11 6 5 10 -3 15 -9 12 -12z m45 -12 c8 -5 11 -10 5 -10 -5 0 -17 5 -25 10 -8 5 -10 10 -5 10 6 0 17 -5 25 -10z m230 -5 c-14 -8 -29 -14 -35 -14 -5 0 1 6 15 14 14 8 30 14 35 14 6 0 -1 -6 -15 -14z m-53 -22 c-4 -3 -10 -3 -14 0 -3 4 0 7 7 7 7 0 10 -3 7 -7z"/>
<path d="M1736 1808 c-12 -17 -16 -49 -16 -130 0 -89 -3 -108 -15 -108 -8 0 -15 -7 -15 -15 0 -11 12 -15 45 -15 33 0 45 4 45 15 0 8 -4 15 -10 15 -6 0 -10 43 -10 109 0 118 1 121 59 121 45 0 51 -15 51 -127 0 -85 -3 -103 -15 -103 -8 0 -15 -7 -15 -15 0 -11 12 -15 45 -15 33 0 45 4 45 15 0 8 -4 15 -10 15 -6 0 -10 43 -10 108 0 100 -2 110 -23 130 -34 32 -129 32 -151 0z"/>
<path d="M1100 1206 c0 -7 9 -16 20 -19 18 -5 20 -14 20 -116 0 -104 -1 -111 -20 -111 -11 0 -20 -7 -20 -15 0 -11 12 -15 50 -15 38 0 50 4 50 15 0 8 -7 15 -15 15 -22 0 -22 218 0 226 8 4 15 12 15 20 0 10 -14 14 -50 14 -36 0 -50 -4 -50 -14z"/>
</g>
<g id="layer104" fill="#302b2e" stroke="none">
<path d="M0 1500 l0 -1500 1500 0 1500 0 0 1500 0 1500 -1500 0 -1500 0 0 -1500z m1624 695 c300 -178 522 -398 626 -620 59 -124 66 -200 28 -287 -20 -45 -23 -69 -22 -163 1 -123 21 -211 78 -351 19 -46 31 -84 28 -84 -4 0 -23 5 -42 10 -69 20 -204 30 -292 20 -96 -10 -106 -14 -273 -135 -162 -118 -224 -142 -317 -125 -74 14 -154 56 -285 148 -155 110 -193 125 -318 125 -55 0 -120 -6 -144 -12 -23 -7 -44 -11 -46 -9 -1 2 12 39 29 83 54 132 71 217 70 340 0 92 -4 118 -22 159 -37 81 -30 156 23 273 101 220 333 451 631 628 60 36 116 65 124 65 8 0 64 -29 124 -65z m-425 -11 c-14 -50 -68 -136 -81 -128 -12 8 -2 68 18 105 13 26 63 73 70 66 2 -2 -1 -21 -7 -43z m651 1 c12 -20 20 -49 20 -76 l0 -44 -21 25 c-25 31 -58 100 -59 122 0 26 37 10 60 -27z m-820 -25 c-28 -22 -44 -21 -48 3 -3 14 4 17 35 17 l38 0 -25 -20z m941 -85 c10 -22 19 -51 19 -64 l0 -24 -24 22 c-23 22 -54 84 -71 141 -7 25 -7 25 25 -5 18 -16 41 -48 51 -70z m-905 -18 c-31 -64 -62 -98 -71 -75 -8 21 30 105 62 134 38 36 42 12 9 -59z m981 -6 c38 -34 70 -131 44 -131 -17 0 -91 127 -91 156 0 11 19 1 47 -25z m-1077 -38 c-18 -54 -70 -127 -82 -115 -17 17 12 94 49 130 20 18 38 31 40 28 3 -3 -1 -22 -7 -43z m-165 -27 c-28 -23 -68 -37 -104 -36 -22 1 89 59 114 59 17 1 16 -3 -10 -23z m1385 -101 c0 -25 -2 -45 -5 -45 -9 0 -53 95 -59 130 l-7 35 35 -37 c30 -32 36 -45 36 -83z m31 97 c-7 -2 -18 1 -23 6 -8 8 -4 9 13 5 13 -4 18 -8 10 -11z m-1376 -77 c-13 -30 -28 -62 -34 -72 -9 -17 -10 -17 -16 0 -11 28 4 83 30 111 38 41 48 23 20 -39z m1546 -15 c26 -22 30 -29 16 -30 -40 -1 -153 63 -142 80 9 14 88 -18 126 -50z m-1694 4 c-29 -25 -114 -60 -124 -51 -12 13 30 47 81 66 61 23 79 16 43 -15z m1567 -26 c18 -32 19 -40 7 -79 l-14 -44 -14 40 c-17 48 -22 126 -8 122 6 -2 19 -19 29 -39z m-1509 -35 c-4 -25 -11 -58 -17 -72 l-10 -26 -14 30 c-15 34 -10 71 13 98 27 29 36 20 28 -30z m1645 -18 c27 -14 93 -85 86 -92 -2 -2 -26 7 -54 19 -36 16 -55 32 -66 55 -17 37 -10 41 34 18z m-1770 -13 c0 -18 -58 -72 -92 -86 -41 -16 -43 -15 -27 15 20 39 119 98 119 71z m1720 -62 c0 -15 -8 -38 -18 -51 l-19 -22 -7 27 c-4 16 -4 49 0 74 l7 46 18 -23 c11 -13 19 -36 19 -51z m-1668 -27 c0 -60 -15 -75 -36 -35 -20 39 -20 56 1 88 14 22 17 24 25 9 6 -9 10 -37 10 -62z m1815 -81 c14 -24 23 -45 21 -47 -6 -6 -67 40 -83 62 -7 10 -16 29 -20 42 l-7 23 32 -18 c17 -11 43 -38 57 -62z m-1937 17 c-12 -29 -88 -95 -98 -85 -9 10 40 82 70 103 39 27 45 23 28 -18z m1826 -32 c-7 -18 -21 -39 -31 -47 -17 -14 -18 -13 -13 28 4 23 14 55 24 69 l17 27 8 -23 c6 -14 4 -34 -5 -54z m-1766 26 c17 -36 30 -103 19 -103 -19 0 -49 55 -49 91 0 46 12 50 30 12z m1787 -130 c-18 -34 -57 -71 -57 -54 0 16 29 72 49 95 14 15 16 16 19 3 2 -9 -3 -28 -11 -44z m71 35 c22 -25 42 -69 42 -95 0 -23 -44 19 -64 62 -27 57 -17 73 22 33z m-1938 -13 c0 -24 -25 -67 -54 -94 -21 -19 -26 -21 -26 -8 0 26 20 70 42 95 25 26 38 28 38 7z m85 -68 c15 -37 15 -38 -5 -27 -25 13 -47 46 -56 85 l-6 30 25 -25 c15 -14 33 -42 42 -63z m1795 -43 c0 -18 -68 -90 -77 -81 -8 8 24 57 51 79 26 22 26 22 26 2z m73 -59 c8 -23 11 -48 7 -55 -10 -17 -50 49 -57 97 -6 38 -6 38 15 19 11 -10 27 -37 35 -61z m-1961 -6 c-11 -24 -27 -53 -36 -64 -15 -20 -15 -19 -16 7 0 53 43 129 63 109 5 -5 1 -26 -11 -52z m95 0 c14 -22 23 -42 21 -45 -9 -9 -88 72 -88 90 0 26 35 3 67 -45z m1766 -71 c-19 -32 -69 -66 -80 -54 -8 8 26 45 62 67 39 25 40 24 18 -13z m57 -23 c13 -30 17 -52 11 -67 l-8 -21 -16 24 c-15 21 -25 109 -12 109 3 0 14 -20 25 -45z m-1890 -42 c-12 -46 -27 -70 -36 -61 -11 12 -7 51 10 93 15 34 19 37 27 23 7 -12 6 -31 -1 -55z m78 33 c20 -19 34 -37 31 -40 -8 -8 -79 22 -79 33 0 5 -3 16 -6 25 -10 26 14 18 54 -18z m1752 -76 c0 -29 -52 -102 -64 -90 -9 10 12 81 30 101 24 27 34 24 34 -11z m-1763 -12 c24 -25 42 -98 25 -98 -20 0 -62 62 -62 91 0 35 9 37 37 7z"/>
<path d="M1480 2225 c-7 -8 -18 -15 -24 -15 -17 0 -194 -110 -267 -165 -98 -77 -255 -231 -319 -317 -74 -98 -126 -204 -139 -284 -10 -64 -6 -95 24 -179 34 -98 15 -294 -44 -443 -12 -29 -21 -57 -21 -62 0 -5 41 -7 98 -3 144 8 209 -11 331 -98 249 -178 345 -210 464 -155 29 13 112 67 186 120 86 61 153 102 185 111 63 19 241 19 318 1 l57 -13 -21 51 c-58 142 -72 206 -72 341 -1 112 2 139 22 195 19 51 22 76 17 115 -11 86 -77 221 -156 320 -66 83 -218 231 -308 299 -73 57 -250 166 -267 166 -6 0 -17 7 -24 15 -7 8 -16 15 -20 15 -4 0 -13 -7 -20 -15z m184 -136 c154 -105 183 -127 274 -214 151 -144 271 -330 291 -453 l8 -52 -358 0 -359 0 0 401 0 400 21 -6 c12 -4 67 -38 123 -76z m-398 -329 c56 56 65 61 62 40 -2 -16 2 -25 11 -25 8 0 16 -7 19 -15 3 -8 1 -12 -3 -8 -13 12 -34 -12 -28 -30 6 -15 5 -15 -11 -3 -9 8 -15 20 -12 28 10 24 -9 14 -49 -28 l-40 -40 28 -25 c23 -19 36 -23 61 -19 24 5 36 2 46 -12 12 -15 12 -16 0 -5 -20 18 -34 15 -64 -13 -32 -29 -35 -71 -6 -80 14 -5 29 2 50 24 17 16 30 35 30 42 0 7 3 9 6 6 13 -13 -19 -66 -46 -77 -50 -21 -95 23 -70 69 8 17 5 24 -17 46 -15 14 -30 25 -33 25 -3 0 -18 -11 -33 -25 -22 -22 -25 -29 -17 -46 25 -46 -20 -90 -70 -69 -27 11 -59 64 -46 77 3 3 6 1 6 -6 0 -7 13 -26 30 -42 21 -22 36 -29 50 -24 29 9 26 51 -6 80 -30 28 -44 31 -64 13 -12 -11 -12 -10 0 5 10 14 22 17 46 12 25 -4 38 0 61 19 l28 25 -40 40 c-40 42 -59 52 -49 28 3 -8 -3 -20 -12 -28 -16 -12 -17 -12 -11 3 6 18 -15 42 -28 30 -4 -4 -6 0 -3 8 3 8 11 15 19 15 9 0 13 9 11 25 -3 21 6 16 62 -40 l66 -64 66 64z m224 -825 l0 -414 -32 5 c-58 10 -155 61 -255 132 -156 111 -196 130 -293 140 -47 5 -102 7 -122 5 l-38 -5 19 55 c53 154 64 333 27 436 -9 24 -13 47 -10 52 3 5 160 9 355 9 l349 0 0 -415z m618 207 c-1 -4 -18 -32 -36 -62 -30 -48 -41 -58 -94 -78 -33 -13 -62 -22 -64 -19 -2 2 22 14 54 27 47 19 65 32 87 67 15 24 25 47 21 50 -3 3 -31 -4 -62 -16 -66 -25 -92 -26 -122 -5 -22 15 -22 15 -22 -40 0 -42 4 -57 18 -65 9 -6 12 -11 7 -11 -6 0 -16 5 -23 12 -9 9 -15 9 -24 0 -7 -7 -17 -12 -23 -12 -5 0 -2 5 8 11 13 8 17 23 17 65 0 55 0 55 -22 40 -30 -21 -52 -20 -122 4 -32 12 -61 19 -63 16 -3 -3 7 -25 22 -49 19 -29 40 -48 62 -57 19 -6 33 -14 30 -16 -2 -2 -18 1 -36 7 -21 8 -45 30 -71 70 -22 32 -40 60 -40 63 0 4 113 6 251 6 138 0 249 -3 247 -8z m-321 -149 c-4 -3 -10 -3 -14 0 -3 4 0 7 7 7 7 0 10 -3 7 -7z"/>
<path d="M1742 1807 c-20 -21 -22 -34 -22 -130 0 -65 -4 -107 -10 -107 -5 0 -10 -7 -10 -15 0 -11 11 -15 40 -15 29 0 40 4 40 15 0 8 -7 15 -15 15 -12 0 -15 17 -15 96 0 116 8 134 58 134 21 0 43 -5 50 -12 8 -8 12 -48 12 -115 0 -85 -3 -103 -15 -103 -8 0 -15 -7 -15 -15 0 -11 12 -15 45 -15 33 0 45 4 45 15 0 8 -4 15 -10 15 -6 0 -10 43 -10 108 0 100 -2 110 -23 130 -34 32 -115 31 -145 -1z"/>
</g>
<g id="layer105" fill="#4d303e" stroke="none">
<path d="M0 1500 l0 -1500 1500 0 1500 0 0 1500 0 1500 -1500 0 -1500 0 0 -1500z m1547 742 c212 -111 444 -298 580 -467 77 -97 159 -258 171 -336 9 -57 8 -62 -33 -199 -21 -70 -15 -192 15 -305 20 -74 29 -99 65 -180 17 -40 25 -65 20 -65 -2 0 -34 7 -72 16 -43 10 -113 16 -188 16 -148 -1 -180 -13 -340 -131 -151 -111 -202 -136 -286 -135 -84 2 -170 41 -319 147 -141 100 -181 119 -265 127 -65 6 -170 -1 -230 -16 l-26 -6 17 43 c9 24 22 58 29 74 64 148 80 357 36 469 -27 68 -29 132 -5 203 40 122 158 296 281 414 136 132 449 348 503 348 8 0 30 -8 47 -17z m-342 -44 c-12 -55 -66 -148 -86 -148 -26 0 3 100 43 145 38 44 52 45 43 3z m616 22 c34 -19 67 -111 50 -139 -6 -9 -14 -5 -28 16 -27 38 -44 70 -53 104 -9 31 -2 36 31 19z m-791 -62 c-26 -21 -43 -19 -48 4 -3 18 22 27 52 19 18 -4 18 -5 -4 -23z m955 12 c3 -5 2 -10 -4 -10 -5 0 -13 5 -16 10 -3 6 -2 10 4 10 5 0 13 -4 16 -10z m-16 -83 c12 -24 21 -59 21 -78 l-1 -34 -25 30 c-28 34 -59 96 -68 138 l-7 29 30 -21 c16 -12 39 -41 50 -64z m-899 -25 c-24 -55 -64 -100 -74 -83 -13 20 18 94 53 130 44 45 52 26 21 -47z m983 -14 c31 -28 38 -41 43 -88 l7 -55 -27 24 c-37 34 -90 151 -68 151 5 0 25 -15 45 -32z m-1079 -29 c-7 -43 -72 -135 -85 -122 -19 19 11 101 48 134 19 16 37 29 39 27 2 -2 1 -20 -2 -39z m-159 -29 c-19 -21 -74 -40 -115 -39 -20 0 -14 6 30 29 30 16 66 29 79 30 23 0 24 -1 6 -20z m1375 -106 c0 -46 0 -47 -20 -29 -19 17 -29 45 -45 120 l-7 30 36 -37 c31 -32 36 -44 36 -84z m30 106 c13 -8 13 -10 -2 -10 -9 0 -20 5 -23 10 -8 13 5 13 25 0z m-1357 -27 c7 -12 -23 -95 -43 -120 -21 -26 -30 -20 -30 19 0 55 55 130 73 101z m1493 -46 c16 -8 38 -24 48 -36 19 -21 19 -21 -7 -21 -42 0 -143 62 -132 81 6 9 49 -2 91 -24z m-1632 5 c13 -22 -96 -82 -148 -82 -18 0 -18 2 4 25 13 14 46 34 74 44 59 23 63 24 70 13z m1533 -34 c16 -15 23 -32 23 -57 -1 -37 -23 -90 -32 -75 -13 23 -29 154 -19 154 3 0 15 -10 28 -22z m-1501 -59 c-11 -94 -27 -115 -46 -63 -15 38 -12 63 11 95 32 46 42 37 35 -32z m1687 -49 c28 -28 48 -53 45 -56 -4 -3 -28 4 -56 16 -44 19 -54 29 -80 83 -2 4 6 7 19 7 13 0 42 -20 72 -50z m-93 -36 c0 -18 -8 -42 -19 -55 l-19 -23 -6 31 c-4 18 -4 53 0 79 l7 47 18 -24 c10 -13 19 -38 19 -55z m-1730 36 c-25 -36 -66 -65 -102 -74 -38 -9 -35 3 10 46 43 41 70 57 95 58 17 0 17 -2 -3 -30z m62 -69 c0 -55 -14 -71 -36 -40 -21 30 -20 64 1 100 17 29 17 29 26 7 5 -13 8 -43 9 -67z m1815 -71 c24 -34 30 -60 14 -60 -19 0 -101 90 -101 111 0 21 0 21 32 2 18 -11 43 -34 55 -53z m-101 -4 c-4 -18 -17 -43 -31 -56 l-25 -23 0 29 c0 16 10 49 21 74 18 39 22 43 31 27 5 -10 7 -33 4 -51z m-1840 5 c-18 -34 -83 -87 -94 -77 -11 12 33 79 69 104 38 26 47 17 25 -27z m68 -3 c8 -18 17 -51 21 -73 l7 -40 -31 29 c-25 24 -31 38 -31 73 0 51 16 56 34 11z m1848 -85 c32 -35 48 -66 48 -94 l0 -22 -26 24 c-27 25 -46 57 -58 97 -10 30 5 28 36 -5z m-66 -45 c-9 -18 -25 -39 -36 -46 -18 -11 -20 -10 -20 13 0 30 63 107 68 82 2 -9 -4 -31 -12 -49z m-1879 -15 c-9 -15 -27 -39 -41 -52 l-26 -24 0 22 c0 28 16 59 49 94 24 27 26 27 29 8 2 -11 -3 -32 -11 -48z m87 -6 c14 -28 23 -53 21 -56 -11 -10 -65 55 -71 87 -10 49 19 32 50 -31z m1862 -80 c24 -45 33 -82 24 -97 -12 -20 -52 47 -58 97 -6 52 7 52 34 0z m-56 18 c0 -19 -58 -85 -76 -85 -22 0 -17 14 24 58 42 45 52 50 52 27z m-1876 -13 c9 -14 -15 -78 -40 -109 l-23 -28 -1 38 c0 22 9 51 23 72 22 35 32 41 41 27z m58 -19 c29 -31 52 -72 45 -79 -9 -9 -87 72 -87 89 0 24 13 21 42 -10z m1801 -93 c-10 -37 -93 -92 -93 -62 0 14 75 78 97 82 0 0 -1 -9 -4 -20z m55 -47 c6 -18 7 -44 3 -60 l-8 -28 -16 32 c-9 18 -17 51 -17 75 0 36 2 40 14 28 7 -8 18 -29 24 -47z m-1813 0 c40 -39 44 -53 13 -46 -36 9 -60 30 -74 61 -11 27 -10 29 7 25 10 -3 34 -21 54 -40z m-85 -39 c-19 -68 -44 -74 -42 -9 1 19 9 46 18 61 15 23 18 24 27 9 6 -11 5 -33 -3 -61z m1830 -37 c0 -24 -8 -41 -30 -62 -16 -16 -32 -26 -36 -23 -9 9 13 78 32 99 25 27 34 23 34 -14z m-1757 -5 c19 -21 34 -102 19 -102 -6 0 -22 14 -36 31 -44 52 -28 121 17 71z"/>
<path d="M1486 2231 c-3 -5 -30 -20 -59 -35 -179 -87 -438 -306 -564 -477 -126 -171 -161 -305 -113 -440 38 -107 29 -259 -25 -422 -12 -37 -25 -71 -29 -74 -3 -4 -6 -12 -6 -19 0 -10 23 -12 103 -7 153 8 202 -8 357 -116 116 -82 160 -108 234 -143 16 -7 59 -13 96 -13 83 0 131 23 285 137 153 112 175 121 313 126 65 2 140 -1 174 -8 33 -6 62 -9 65 -7 3 3 -2 20 -10 39 -79 176 -99 379 -51 524 20 62 24 89 19 129 -12 88 -72 212 -157 322 -54 71 -226 235 -319 305 -84 63 -237 158 -255 158 -6 0 -17 7 -24 15 -14 17 -26 19 -34 6z m189 -149 c154 -105 154 -105 279 -227 166 -162 262 -319 278 -452 l5 -33 -359 0 -358 0 0 401 0 400 22 -7 c12 -3 72 -40 133 -82z m-533 -319 l58 -57 59 58 c35 34 64 55 70 51 9 -5 9 -10 1 -20 -9 -10 -6 -14 11 -17 26 -4 38 -28 14 -28 -9 0 -19 -9 -22 -20 -7 -26 -26 -21 -33 9 -5 21 -7 20 -42 -16 l-38 -39 25 -26 c20 -22 31 -26 58 -21 63 10 89 -50 42 -101 -47 -51 -112 -23 -101 44 5 31 2 41 -19 60 l-25 23 -25 -23 c-21 -19 -24 -29 -19 -60 11 -67 -54 -95 -101 -44 -47 51 -21 111 42 101 27 -5 38 -1 58 21 l25 26 -38 39 c-35 36 -37 37 -42 16 -7 -30 -26 -35 -33 -9 -3 11 -13 20 -22 20 -25 0 -12 24 16 30 16 4 20 8 11 14 -12 7 -8 26 6 26 3 0 32 -26 64 -57z m348 -828 c0 -243 -4 -415 -9 -415 -5 0 -37 8 -70 19 -41 13 -114 54 -223 128 -182 122 -212 134 -349 134 l-88 1 10 24 c5 14 19 64 31 112 29 109 31 282 5 351 -9 24 -14 47 -11 52 3 5 160 9 355 9 l349 0 0 -415z m587 149 c-34 -52 -52 -69 -83 -81 -61 -23 -87 -25 -108 -10 -17 12 -24 13 -53 0 -31 -12 -40 -12 -91 7 -51 19 -62 28 -100 86 l-42 64 260 0 260 0 -43 -66z"/>
<path d="M1742 1807 c-20 -21 -22 -34 -22 -130 0 -65 -4 -107 -10 -107 -5 0 -10 -7 -10 -15 0 -11 11 -15 40 -15 29 0 40 4 40 15 0 8 -7 15 -15 15 -12 0 -15 18 -15 103 0 116 5 127 60 127 20 0 41 -5 48 -12 15 -15 17 -218 2 -218 -5 0 -10 -7 -10 -15 0 -11 11 -15 40 -15 29 0 40 4 40 15 0 8 -7 15 -15 15 -12 0 -15 19 -15 113 0 135 -7 147 -87 147 -39 0 -54 -5 -71 -23z"/>
<path d="M1047 1613 c-13 -12 -7 -30 18 -57 31 -34 75 -36 75 -3 0 40 -69 85 -93 60z"/>
<path d="M1283 1596 c-32 -33 -31 -66 2 -66 30 0 77 46 73 69 -5 26 -50 24 -75 -3z"/>
<path d="M1110 1205 c0 -8 7 -15 15 -15 12 0 15 -19 15 -115 0 -96 -3 -115 -15 -115 -8 0 -15 -7 -15 -15 0 -11 12 -15 45 -15 33 0 45 4 45 15 0 8 -7 15 -15 15 -12 0 -15 19 -15 115 0 96 3 115 15 115 8 0 15 7 15 15 0 11 -12 15 -45 15 -33 0 -45 -4 -45 -15z"/>
<path d="M1642 1122 c27 -60 55 -89 107 -109 50 -20 58 -21 78 -7 18 11 23 24 23 60 0 41 -2 44 -19 34 -26 -13 -73 -13 -108 1 -48 19 -84 28 -81 21z"/>
<path d="M2020 1110 c-51 -21 -102 -25 -131 -10 -17 10 -19 7 -19 -34 0 -36 5 -49 23 -60 20 -14 28 -13 78 7 44 17 62 31 80 62 39 65 40 65 -31 35z"/>
</g>
<g id="layer106" fill="#583747" stroke="none">
<path d="M0 1500 l0 -1500 1500 0 1500 0 0 1500 0 1500 -1500 0 -1500 0 0 -1500z m1536 747 c16 -7 47 -24 69 -38 22 -14 52 -32 67 -40 62 -32 226 -159 314 -242 149 -141 271 -320 304 -445 18 -68 14 -132 -12 -197 -19 -49 -23 -78 -22 -160 0 -61 7 -122 17 -155 9 -30 19 -66 23 -80 3 -14 12 -39 20 -57 8 -17 14 -37 14 -45 0 -7 6 -22 14 -33 14 -22 30 -75 21 -75 -3 0 -13 4 -23 9 -40 21 -127 32 -239 32 -142 0 -182 -14 -309 -109 -197 -147 -263 -175 -365 -153 -73 16 -135 48 -259 136 -58 41 -126 86 -152 100 -73 39 -225 48 -346 21 l-33 -8 17 44 c9 23 23 57 30 75 8 17 26 83 40 145 29 125 29 237 1 299 -33 72 -37 132 -17 212 44 168 232 404 456 571 43 33 95 71 114 86 19 14 43 29 52 33 9 3 36 18 60 34 84 54 101 59 144 40z m-335 -64 c-12 -44 -66 -133 -81 -133 -30 0 4 107 48 153 41 42 48 37 33 -20z m641 16 c32 -43 45 -141 17 -123 -14 8 -59 89 -69 124 -8 28 -7 31 12 28 12 -2 30 -15 40 -29z m-816 -44 c-16 -12 -37 -20 -49 -18 -15 3 -49 -16 -106 -56 -118 -85 -206 -111 -129 -38 34 32 214 131 254 139 10 2 28 2 38 -1 18 -4 17 -6 -8 -26z m1116 -56 c62 -31 128 -78 128 -91 0 -22 -68 4 -176 70 -61 36 -118 77 -127 89 -16 20 -10 19 57 -12 41 -18 94 -44 118 -56z m-171 -13 c10 -23 18 -57 18 -76 l0 -35 -25 30 c-28 34 -59 96 -68 138 l-7 29 32 -23 c17 -12 40 -40 50 -63z m-881 37 c0 -27 -44 -116 -68 -136 -48 -43 -31 55 20 117 32 39 48 45 48 19z m963 -75 c31 -28 38 -41 43 -88 l7 -55 -27 24 c-37 34 -90 151 -68 151 5 0 25 -15 45 -32z m-1079 -29 c-7 -43 -72 -135 -85 -122 -19 19 11 101 48 134 19 16 37 29 39 27 2 -2 1 -20 -2 -39z m-159 -29 c-19 -21 -74 -40 -115 -39 -20 0 -14 6 30 29 30 16 66 29 79 30 23 0 24 -1 6 -20z m1405 -8 c-7 -3 -19 3 -28 13 -16 15 -15 16 12 4 15 -7 23 -15 16 -17z m-60 -7 c17 -18 25 -40 28 -82 l5 -58 -22 19 c-19 17 -27 37 -47 119 -8 34 5 35 36 2z m-1300 -44 c-14 -45 -23 -65 -40 -88 -21 -27 -30 -20 -30 19 0 33 13 63 43 96 25 27 39 13 27 -27z m1397 42 c-4 -3 -10 -3 -14 0 -3 4 0 7 7 7 7 0 10 -3 7 -7z m99 -56 c16 -8 38 -24 48 -36 19 -21 19 -21 -7 -21 -42 0 -143 62 -132 81 6 9 49 -2 91 -24z m-1632 5 c13 -21 -96 -82 -148 -82 -16 0 -17 2 -5 16 20 24 82 61 110 67 13 2 27 5 31 6 4 0 9 -3 12 -7z m1533 -34 c16 -15 23 -32 23 -57 -1 -37 -23 -90 -32 -75 -13 23 -29 154 -19 154 3 0 15 -10 28 -22z m-1501 -59 c-11 -94 -27 -115 -46 -63 -15 38 -12 63 11 95 32 46 42 37 35 -32z m1664 -24 c32 -24 79 -85 65 -85 -3 0 -28 9 -54 21 -43 18 -53 28 -79 82 -8 17 37 5 68 -18z m-70 -61 c0 -18 -8 -42 -19 -55 l-19 -23 -6 31 c-4 18 -4 53 0 79 l7 47 18 -24 c10 -13 19 -38 19 -55z m-1730 36 c-25 -36 -66 -65 -102 -74 -38 -9 -35 3 10 46 43 41 70 57 95 58 17 0 17 -2 -3 -30z m62 -69 c0 -55 -14 -71 -36 -40 -21 30 -20 64 1 100 17 29 17 29 26 7 5 -13 8 -43 9 -67z m1815 -71 c24 -34 30 -60 14 -60 -19 0 -101 90 -101 111 0 21 0 21 32 2 18 -11 43 -34 55 -53z m-101 -4 c-4 -18 -17 -43 -31 -56 l-25 -23 0 29 c0 16 10 49 21 74 18 39 22 43 31 27 5 -10 7 -33 4 -51z m-1840 5 c-18 -34 -83 -87 -94 -77 -12 12 32 80 68 104 39 26 48 17 26 -27z m68 -3 c8 -18 17 -51 20 -73 l7 -40 -30 30 c-16 17 -30 39 -31 50 -7 69 12 87 34 33z m1837 -73 c24 -15 59 -76 59 -104 l0 -25 -30 29 c-17 16 -35 44 -42 62 -12 32 -28 45 -28 22 0 -22 -30 -74 -50 -87 -18 -11 -20 -10 -20 11 0 13 13 42 29 64 29 40 50 47 82 28z m-1934 -72 c-9 -15 -27 -39 -41 -52 l-26 -24 0 24 c0 27 34 87 59 106 13 10 17 8 19 -7 2 -10 -3 -31 -11 -47z m87 -6 c14 -28 23 -53 21 -56 -13 -12 -66 57 -72 94 -6 36 -5 39 10 27 9 -8 27 -37 41 -65z m1884 -128 c5 -20 6 -42 2 -49 -13 -21 -52 48 -57 98 l-4 47 25 -29 c13 -16 29 -46 34 -67z m-78 66 c0 -19 -58 -85 -76 -85 -21 0 -18 9 22 56 37 45 54 55 54 29z m-1882 -57 c-6 -20 -21 -49 -34 -65 l-23 -28 -1 38 c0 46 47 129 61 105 5 -8 3 -30 -3 -50z m64 25 c29 -31 52 -72 45 -79 -9 -9 -87 72 -87 89 0 24 13 21 42 -10z m1801 -93 c-6 -24 -58 -70 -79 -70 -30 0 -5 37 46 69 19 11 36 21 37 21 0 0 -1 -9 -4 -20z m55 -47 c6 -18 7 -44 3 -60 l-8 -28 -16 32 c-9 18 -17 51 -17 75 0 36 2 40 14 28 7 -8 18 -29 24 -47z m-1843 27 c28 -17 65 -59 65 -74 0 -7 -44 6 -64 20 -19 13 -51 74 -39 74 3 0 20 -9 38 -20z m-54 -58 c-20 -75 -46 -86 -43 -17 2 43 30 91 46 75 7 -7 6 -24 -3 -58z m1830 -24 c3 -34 -5 -56 -31 -82 -36 -37 -45 -30 -30 23 14 54 58 96 61 59z m-1758 -26 c19 -21 34 -102 19 -102 -6 0 -22 14 -36 31 -44 52 -28 121 17 71z"/>
<path d="M1445 2205 c-22 -12 -62 -34 -88 -49 -27 -14 -61 -35 -75 -46 -15 -12 -56 -42 -92 -68 -36 -25 -119 -101 -185 -167 -184 -184 -263 -318 -273 -463 -3 -41 0 -83 6 -95 40 -85 48 -169 27 -294 -16 -91 -54 -225 -69 -240 -22 -23 2 -28 126 -28 91 0 144 -4 168 -14 19 -8 91 -53 160 -101 188 -130 270 -166 356 -156 67 8 111 31 268 144 82 59 146 97 179 107 60 18 232 20 307 4 28 -6 54 -9 57 -6 2 3 -2 20 -10 39 -49 108 -77 240 -77 356 0 78 14 165 30 187 23 32 18 133 -10 200 -48 112 -77 162 -140 241 -59 75 -220 228 -300 286 -36 26 -76 56 -89 65 -56 41 -208 123 -225 122 -6 0 -29 -11 -51 -24z m195 -98 c156 -105 218 -155 321 -257 158 -156 255 -316 271 -447 l5 -33 -359 0 -358 0 0 401 0 400 23 -6 c12 -4 56 -30 97 -58z m-498 -344 l58 -57 58 57 c54 53 82 70 82 48 0 -6 -6 -13 -12 -17 -9 -6 -5 -10 12 -14 27 -6 35 -35 10 -35 -8 0 -15 -7 -15 -15 0 -24 -29 -17 -35 8 -5 22 -6 22 -43 -16 l-37 -38 25 -24 c20 -19 35 -24 65 -21 30 2 41 -2 49 -18 27 -49 -7 -111 -60 -111 -40 0 -60 25 -57 71 1 29 -4 45 -20 61 l-22 22 -22 -22 c-16 -16 -21 -32 -20 -61 3 -46 -17 -71 -56 -71 -54 0 -88 62 -61 111 8 16 19 20 49 18 30 -3 45 2 65 21 l25 24 -37 38 c-37 38 -38 38 -43 16 -6 -25 -35 -32 -35 -8 0 8 -7 15 -15 15 -25 0 -17 29 10 35 17 4 21 8 12 14 -6 4 -12 11 -12 17 0 22 28 5 82 -48z m348 -829 l0 -416 -42 7 c-24 4 -47 11 -53 15 -5 4 -20 11 -33 15 -13 4 -74 42 -135 85 -209 146 -222 151 -364 158 l-111 5 9 24 c54 144 72 362 36 455 -10 26 -16 52 -12 58 4 6 128 10 356 10 l349 0 0 -416z m611 184 c-12 -18 -31 -49 -43 -68 -27 -45 -122 -80 -170 -62 -21 7 -38 8 -59 0 -25 -8 -42 -7 -86 8 -54 18 -81 46 -137 142 -6 9 48 12 254 12 l262 0 -21 -32z"/>
<path d="M1742 1807 c-20 -21 -22 -34 -22 -130 0 -60 -4 -109 -10 -112 -22 -13 -8 -25 30 -25 40 0 53 13 25 24 -12 4 -15 26 -15 109 0 67 4 107 12 115 7 7 31 12 55 12 56 0 63 -15 63 -135 0 -76 -3 -97 -15 -101 -27 -11 -16 -24 20 -24 34 0 46 12 25 25 -6 4 -10 53 -10 114 0 99 -2 109 -23 129 -33 31 -105 31 -135 -1z"/>
<path d="M1050 1598 c0 -13 11 -33 25 -46 47 -45 88 -4 43 43 -30 32 -68 34 -68 3z"/>
<path d="M1282 1595 c-45 -47 -4 -88 43 -43 32 30 34 68 3 68 -13 0 -33 -11 -46 -25z"/>
<path d="M1110 1205 c0 -8 7 -15 15 -15 22 0 22 -228 0 -236 -30 -12 -14 -24 30 -24 44 0 60 12 30 24 -12 4 -15 27 -15 121 0 96 3 115 15 115 8 0 15 7 15 15 0 11 -12 15 -45 15 -33 0 -45 -4 -45 -15z"/>
<path d="M1650 1115 c0 -3 11 -23 25 -44 16 -27 34 -41 54 -46 17 -4 33 -11 36 -16 9 -13 59 -11 73 3 7 7 12 31 12 54 l0 42 -32 -15 c-30 -15 -36 -15 -92 5 -63 23 -76 26 -76 17z"/>
<path d="M1989 1097 c-52 -19 -57 -19 -87 -4 l-32 15 0 -42 c0 -23 5 -47 12 -54 14 -14 64 -16 73 -3 3 5 19 12 36 16 20 5 38 19 54 46 14 21 25 41 25 44 0 9 -24 4 -81 -18z"/>
</g>
<g id="layer107" fill="#633b4e" stroke="none">
<path d="M0 1500 l0 -1500 1500 0 1500 0 0 1500 0 1500 -1500 0 -1500 0 0 -1500z m1541 744 c19 -8 52 -26 74 -39 22 -14 47 -28 55 -31 8 -4 67 -45 130 -92 132 -97 306 -267 371 -362 125 -183 156 -310 107 -435 -18 -48 -23 -79 -23 -155 0 -52 7 -117 14 -145 24 -86 70 -221 86 -251 19 -38 19 -58 0 -50 -74 28 -148 38 -265 34 -147 -5 -168 -13 -295 -108 -236 -177 -307 -194 -470 -113 -74 37 -87 45 -130 79 -45 34 -167 114 -205 134 -34 18 -223 25 -290 11 -29 -6 -55 -9 -58 -6 -3 3 2 20 11 37 61 127 102 307 94 414 -3 40 -12 87 -20 106 -23 50 -29 77 -29 121 3 200 191 456 505 689 119 88 134 99 182 123 17 9 46 24 65 35 43 24 49 24 91 4z m-340 -61 c-12 -44 -66 -133 -81 -133 -30 0 4 107 48 153 41 42 48 37 33 -20z m641 16 c11 -14 23 -43 28 -63 25 -112 -44 -54 -80 67 -8 25 -7 28 12 25 12 -2 30 -15 40 -29z m-799 -19 c7 -1 -1 -11 -17 -24 -16 -14 -35 -22 -42 -19 -16 6 -42 -8 -124 -67 -99 -70 -153 -89 -143 -50 7 25 63 65 163 115 85 43 119 55 138 49 8 -2 19 -4 25 -4z m1089 -71 c80 -40 138 -83 138 -102 0 -9 -24 -7 -80 7 -14 4 -2 -5 25 -18 37 -19 42 -24 20 -19 -35 7 -70 29 -70 44 0 6 -40 35 -88 64 -48 30 -97 65 -108 80 l-21 25 51 -20 c28 -10 88 -38 133 -61z m-161 -23 c10 -23 19 -56 19 -75 0 -34 0 -34 -21 -15 -26 23 -64 98 -72 142 l-7 33 31 -22 c17 -12 40 -40 50 -63z m-881 37 c0 -23 -46 -122 -67 -145 -54 -60 -36 60 19 126 32 39 48 45 48 19z m963 -75 c33 -29 38 -40 43 -93 l5 -60 -25 30 c-41 47 -88 155 -68 155 5 0 25 -15 45 -32z m-1078 -30 c-8 -43 -73 -134 -86 -121 -19 19 11 101 48 134 19 16 37 28 40 26 2 -3 1 -20 -2 -39z m-157 -28 c-34 -26 -73 -40 -111 -40 -31 1 -30 2 23 30 30 16 68 29 84 30 l29 0 -25 -20z m1342 -15 c17 -18 25 -40 28 -82 l5 -58 -21 19 c-19 16 -52 104 -52 135 0 18 15 13 40 -14z m-1301 -47 c-13 -46 -43 -101 -54 -100 -13 2 -18 37 -11 67 3 13 18 38 32 55 31 36 47 25 33 -22z m1487 -5 c17 -8 43 -27 58 -42 l28 -29 -46 9 c-46 8 -142 70 -129 82 8 8 48 -1 89 -20z m-1622 -2 c10 -16 -66 -64 -121 -77 l-55 -13 19 21 c25 28 85 65 114 71 13 2 27 5 31 6 4 0 9 -3 12 -8z m1533 -33 c16 -15 23 -32 23 -57 -1 -37 -23 -90 -32 -75 -13 23 -29 154 -19 154 3 0 15 -10 28 -22z m-1501 -55 c-9 -80 -17 -104 -30 -100 -6 2 -15 24 -20 49 -8 40 -6 50 13 77 34 47 45 40 37 -26z m1664 -28 c19 -14 43 -39 54 -56 l20 -31 -25 7 c-41 13 -82 37 -101 59 -40 48 -5 63 52 21z m-70 -60 c0 -16 -9 -43 -19 -59 l-19 -28 -7 31 c-4 18 -4 55 0 83 l7 51 19 -24 c10 -13 19 -37 19 -54z m-1730 35 c-25 -36 -66 -65 -102 -74 -38 -9 -35 3 10 46 43 41 70 57 95 58 17 0 17 -2 -3 -30z m61 -74 c0 -59 -7 -68 -32 -37 -24 29 -24 64 -2 102 17 29 17 29 26 7 5 -13 8 -45 8 -72z m1816 -66 c24 -35 30 -60 13 -60 -19 0 -100 89 -100 111 0 21 0 21 32 2 18 -11 43 -34 55 -53z m-101 -4 c-4 -18 -16 -43 -29 -57 l-22 -24 -3 27 c-2 15 6 49 18 75 19 42 23 46 32 30 5 -10 7 -33 4 -51z m-1836 15 c-21 -42 -85 -99 -98 -87 -12 12 32 79 67 103 48 32 54 29 31 -16z m64 -13 c8 -18 17 -51 20 -73 l7 -40 -30 30 c-16 17 -30 39 -31 50 -7 69 12 87 34 33z m1837 -73 c24 -15 59 -76 59 -104 l0 -25 -30 29 c-17 16 -35 44 -42 62 -15 42 -25 42 -33 1 -7 -32 -40 -78 -57 -78 -18 0 -6 49 21 87 29 40 50 47 82 28z m-1941 -83 c-12 -21 -30 -44 -41 -50 -17 -11 -19 -9 -19 10 0 26 34 87 59 105 26 19 26 -20 1 -65z m94 5 c29 -56 28 -65 -3 -45 -24 15 -51 66 -51 98 0 33 23 11 54 -53z m1884 -128 c5 -20 6 -42 2 -49 -13 -21 -52 48 -57 98 l-4 47 25 -29 c13 -16 29 -46 34 -67z m-78 71 c0 -23 -30 -66 -54 -80 -41 -22 -42 -4 -2 45 36 44 56 56 56 35z m-1882 -62 c-6 -20 -21 -49 -34 -65 l-23 -28 -1 38 c0 46 47 129 61 105 5 -8 3 -30 -3 -50z m64 25 c24 -26 48 -65 48 -77 0 -13 -55 26 -71 51 -36 53 -20 71 23 26z m1791 -111 c-37 -50 -102 -72 -72 -24 13 21 80 64 88 56 3 -2 -4 -17 -16 -32z m65 -29 c6 -18 7 -44 3 -60 l-8 -28 -16 32 c-9 18 -17 51 -17 75 0 36 2 40 14 28 7 -8 18 -29 24 -47z m-1843 27 c28 -17 65 -59 65 -74 0 -7 -44 7 -67 21 -20 13 -50 73 -36 73 3 0 20 -9 38 -20z m-49 -41 c-11 -72 -45 -118 -47 -66 -2 43 3 71 18 94 21 32 36 18 29 -28z m1825 -41 c4 -43 -19 -91 -48 -102 -23 -9 -25 -2 -13 43 14 54 58 96 61 59z m-1758 -26 c19 -21 34 -102 19 -102 -6 0 -22 14 -36 31 -44 52 -28 121 17 71z"/>
<path d="M1445 2205 c-22 -13 -47 -27 -55 -31 -44 -22 -195 -127 -269 -189 -238 -198 -391 -427 -391 -585 0 -26 9 -73 19 -106 28 -86 34 -158 21 -254 -11 -77 -48 -210 -71 -252 -5 -10 -9 -22 -9 -27 0 -4 51 -6 114 -3 160 7 211 -12 386 -145 75 -57 179 -109 246 -124 50 -11 62 -10 122 9 43 14 93 41 138 75 39 30 111 80 160 113 l89 59 124 4 c70 2 149 -2 183 -9 33 -6 62 -9 65 -7 3 3 -2 20 -10 39 -33 73 -66 188 -76 264 -13 91 -4 180 29 286 17 57 19 74 9 120 -10 51 -39 127 -59 158 -6 8 -17 29 -25 46 -54 118 -293 349 -490 474 -100 64 -106 68 -149 90 -48 24 -51 24 -101 -5z m237 -127 c162 -111 163 -112 276 -222 66 -63 92 -95 177 -210 51 -70 83 -152 98 -248 l4 -28 -358 0 -359 0 0 404 0 404 31 -15 c18 -9 77 -47 131 -85z m-540 -315 l58 -57 58 57 c60 59 88 73 79 37 -3 -11 -2 -18 3 -15 11 7 35 -24 26 -33 -4 -4 -13 -7 -19 -7 -7 0 -11 -8 -9 -18 2 -9 -3 -17 -11 -17 -17 0 -39 24 -32 34 3 3 -12 -9 -32 -29 l-38 -35 25 -23 c17 -16 33 -21 57 -19 42 5 63 -12 63 -51 0 -42 -35 -77 -76 -77 -41 0 -55 19 -53 69 2 31 -2 45 -17 56 -10 8 -21 14 -24 14 -3 0 -14 -6 -24 -14 -15 -11 -19 -25 -17 -56 2 -50 -12 -69 -52 -69 -42 0 -77 35 -77 76 0 40 21 57 63 52 24 -2 40 3 57 19 l25 23 -40 38 c-22 20 -36 33 -32 28 9 -12 -11 -36 -30 -36 -8 0 -13 8 -11 17 2 10 -2 18 -9 18 -6 0 -15 3 -19 7 -9 9 15 40 26 33 5 -3 6 4 3 15 -9 36 19 22 79 -37z m348 -829 l0 -416 -42 7 c-24 4 -47 11 -53 15 -5 4 -20 11 -32 14 -20 6 -91 52 -204 132 -44 32 -98 64 -153 92 -18 9 -71 17 -142 20 l-112 5 9 23 c21 56 51 195 56 261 6 70 -9 176 -29 216 -24 47 -21 47 352 47 l350 0 0 -416z m628 208 c-1 -5 -21 -36 -42 -68 -29 -44 -48 -63 -75 -73 -55 -20 -97 -24 -119 -12 -14 7 -28 7 -50 -1 -25 -10 -40 -8 -87 7 -50 18 -62 27 -101 83 -24 35 -44 65 -44 67 0 3 117 5 261 5 143 0 259 -4 257 -8z"/>
<path d="M1746 1805 c-12 -18 -16 -50 -16 -130 0 -85 -3 -107 -15 -111 -27 -11 -16 -24 20 -24 19 0 35 5 35 10 0 6 -5 10 -10 10 -7 0 -10 42 -8 118 l3 117 48 3 c72 5 77 -3 77 -125 0 -83 -3 -105 -15 -109 -27 -11 -16 -24 20 -24 19 0 35 5 35 10 0 6 -4 10 -10 10 -6 0 -10 44 -10 113 0 106 -2 115 -23 135 -35 33 -109 31 -131 -3z"/>
<path d="M1057 1613 c-21 -20 28 -87 60 -81 27 5 27 31 -1 61 -24 26 -46 34 -59 20z"/>
<path d="M1282 1593 c-26 -31 -25 -56 1 -61 22 -4 69 44 65 67 -5 26 -41 23 -66 -6z"/>
<path d="M1110 1205 c0 -8 7 -15 15 -15 13 0 15 -20 15 -120 0 -100 -2 -120 -15 -120 -8 0 -15 -4 -15 -10 0 -5 20 -10 45 -10 25 0 45 5 45 10 0 6 -7 10 -15 10 -12 0 -15 20 -15 120 0 100 3 120 15 120 8 0 15 7 15 15 0 11 -12 15 -45 15 -33 0 -45 -4 -45 -15z"/>
<path d="M1672 1079 c17 -29 36 -46 64 -56 93 -35 114 -27 114 44 0 44 0 44 -22 29 -30 -21 -57 -20 -113 4 -65 28 -70 26 -43 -21z"/>
<path d="M2005 1100 c-50 -23 -84 -24 -113 -4 -22 15 -22 15 -22 -29 0 -71 21 -79 114 -44 28 10 47 27 64 56 27 47 20 50 -43 21z"/>
</g>
<g id="layer108" fill="#89516c" stroke="none">
<path d="M0 1500 l0 -1500 1500 0 1500 0 0 1500 0 1500 -1500 0 -1500 0 0 -1500z m1630 1037 c134 -19 351 -71 431 -105 15 -6 46 -16 69 -22 23 -6 50 -15 59 -20 9 -4 30 -13 46 -20 17 -7 37 -16 45 -21 8 -5 31 -17 50 -27 44 -21 100 -61 100 -71 0 -4 -22 -33 -49 -65 -29 -34 -54 -76 -61 -102 -19 -65 -45 -95 -78 -88 l-27 5 25 -15 c33 -20 7 -20 -36 0 -37 18 -56 38 -27 28 10 -4 -30 22 -89 57 -59 35 -107 69 -108 75 -1 23 -96 74 -138 74 -13 0 -13 -2 0 -17 31 -39 53 -133 30 -133 -18 0 -53 49 -76 105 -26 65 -35 70 -134 80 -29 2 -63 7 -76 11 -14 3 -33 1 -42 -4 -16 -9 -14 -12 16 -26 19 -9 49 -25 65 -36 17 -11 39 -24 51 -29 11 -5 49 -31 85 -58 35 -27 77 -57 92 -66 16 -10 78 -66 139 -125 246 -238 352 -464 293 -622 -34 -90 -40 -172 -21 -273 16 -87 59 -225 91 -294 21 -44 19 -56 -7 -47 -82 26 -136 34 -235 34 -138 0 -175 -11 -284 -88 -44 -31 -91 -63 -103 -71 -11 -8 -37 -26 -56 -41 -50 -37 -136 -70 -185 -70 -77 0 -167 39 -301 132 -134 93 -162 112 -189 126 -43 22 -213 28 -292 9 -67 -15 -76 -10 -53 31 45 79 100 295 100 384 -1 51 -12 107 -35 168 -59 161 51 392 301 630 78 74 249 208 302 236 15 9 41 24 57 35 17 10 44 26 62 34 65 30 51 38 -58 32 -131 -8 -136 -8 -264 -42 -99 -26 -104 -29 -79 -40 l27 -11 -27 -18 c-16 -10 -40 -19 -56 -21 -15 -2 -60 -28 -100 -57 -57 -41 -69 -54 -58 -62 13 -7 9 -14 -18 -38 -28 -25 -40 -29 -81 -26 l-48 3 38 19 37 20 -31 10 c-27 9 -35 21 -54 74 -14 38 -39 80 -64 107 -22 24 -41 53 -41 63 0 26 60 72 152 115 42 20 79 37 82 37 4 0 25 9 49 19 114 51 262 90 425 114 83 11 288 14 362 4z m-444 -398 c-13 -30 -36 -65 -50 -78 l-26 -24 0 29 c0 52 19 97 57 137 37 37 38 38 41 14 2 -13 -8 -48 -22 -78z m746 4 c37 -40 58 -87 58 -129 0 -37 0 -37 -21 -18 -38 35 -95 174 -71 174 5 0 20 -12 34 -27z m-842 -23 c0 -39 -69 -160 -92 -160 -25 0 5 101 44 145 34 40 48 44 48 15z m967 -73 c32 -30 37 -40 40 -93 l4 -59 -30 35 c-25 28 -71 123 -71 145 0 14 24 1 57 -28z m-1081 -18 c-7 -41 -25 -77 -59 -116 -27 -31 -38 -20 -31 30 5 31 18 54 47 85 23 23 43 42 45 42 3 0 2 -18 -2 -41z m1180 -51 c32 -36 45 -77 38 -115 l-7 -36 -18 24 c-18 23 -49 109 -49 136 0 19 14 16 36 -9z m-1291 -30 c-11 -52 -55 -139 -67 -132 -6 4 -8 27 -6 56 4 36 13 57 33 78 37 39 48 38 40 -2z m1451 -13 c31 -9 62 -28 84 -51 l35 -36 -35 7 c-19 4 -44 11 -55 15 -30 12 -95 66 -88 74 8 8 1 9 59 -9z m-1592 -14 c9 -14 -59 -60 -111 -76 -62 -19 -66 -19 -53 4 17 32 90 71 152 80 4 1 9 -3 12 -8z m1533 -33 c27 -25 32 -92 9 -124 -14 -18 -15 -18 -24 7 -13 34 -25 139 -15 139 3 0 17 -10 30 -22z m-1507 -106 c-14 -64 -31 -64 -44 1 -8 42 -7 49 20 84 l29 38 3 -35 c2 -19 -1 -59 -8 -88z m1668 29 c22 -12 75 -82 68 -89 -3 -2 -26 6 -52 17 -45 20 -71 45 -86 82 -6 15 -3 16 21 9 16 -4 38 -13 49 -19z m-1778 3 c0 -13 -42 -64 -68 -82 -30 -21 -82 -37 -82 -24 0 15 75 85 105 98 34 15 45 17 45 8z m1705 -34 c12 -22 12 -35 3 -62 -26 -77 -48 -72 -48 12 0 94 14 110 45 50z m-1664 -66 c0 -67 -6 -77 -32 -45 -23 28 -24 62 -3 103 14 27 18 29 26 14 5 -9 9 -42 9 -72z m1779 -30 c31 -26 76 -101 66 -111 -7 -8 -74 46 -96 78 -21 29 -26 59 -11 59 5 0 24 -12 41 -26z m-60 -32 c0 -29 -26 -74 -50 -90 -17 -10 -18 -8 -14 26 6 37 20 76 38 100 12 17 26 -2 26 -36z m-1832 8 c-14 -40 -118 -132 -118 -105 0 19 44 87 70 109 44 36 62 35 48 -4z m82 -104 l0 -30 -30 29 c-35 33 -46 75 -29 107 12 22 13 22 36 -27 12 -27 23 -63 23 -79z m1828 1 c20 -21 52 -96 52 -120 0 -20 -70 57 -82 90 -15 41 -24 42 -32 1 -3 -18 -16 -42 -28 -55 -25 -27 -53 -31 -44 -7 3 9 6 19 6 23 0 5 13 26 28 47 34 47 69 54 100 21z m-1962 -85 c-14 -21 -35 -43 -47 -50 -20 -13 -21 -12 -15 12 12 49 24 71 52 100 l29 29 3 -28 c2 -17 -6 -40 -22 -63z m109 7 c21 -45 16 -56 -14 -37 -25 15 -51 66 -51 99 l0 22 24 -22 c13 -12 31 -40 41 -62z m1841 -50 c21 -23 44 -103 34 -118 -10 -17 -48 36 -56 78 -6 28 -24 45 -24 22 0 -16 -58 -71 -74 -71 -26 0 -19 17 25 65 43 46 69 53 95 24z m-1857 -44 c23 -25 41 -52 41 -61 0 -27 -62 16 -82 56 l-16 35 -12 -47 c-7 -25 -23 -57 -36 -69 l-24 -22 0 37 c0 57 33 110 69 113 12 1 36 -16 60 -42z m1834 -95 c16 -26 21 -56 19 -99 -3 -38 -28 -8 -43 51 l-13 50 -21 -26 c-11 -14 -36 -29 -54 -32 l-34 -7 19 25 c26 34 73 67 94 65 10 -1 25 -13 33 -27z m-1811 -23 c45 -35 64 -72 31 -61 -44 14 -67 31 -79 59 l-13 30 -1 -37 c0 -37 -27 -108 -41 -108 -27 0 -9 108 22 133 28 23 31 22 81 -16z m1762 -102 c-6 -24 -21 -47 -42 -63 l-32 -25 0 27 c0 58 50 130 74 106 5 -5 5 -24 0 -45z m-1760 4 c17 -20 26 -43 26 -65 0 -41 -8 -43 -42 -6 -27 29 -40 65 -31 88 8 21 19 17 47 -17z"/>
<path d="M1395 2458 c-2 -7 -5 -32 -7 -55 -3 -41 -2 -43 24 -43 25 0 27 2 18 26 -14 37 -12 64 5 71 21 8 26 1 30 -42 2 -20 11 -45 20 -55 17 -19 19 -18 56 23 37 40 38 41 39 17 0 -22 7 -28 43 -37 71 -20 97 -24 96 -16 -2 15 14 53 22 53 5 0 9 11 9 25 0 37 -16 30 -46 -20 -14 -25 -29 -43 -32 -40 -3 2 -4 25 -4 50 2 34 -1 45 -13 45 -8 0 -16 -8 -17 -17 -1 -10 -2 -25 -4 -33 -1 -8 -2 -21 -3 -28 -1 -7 -5 -10 -11 -7 -5 3 -10 27 -10 52 l0 47 -28 -27 c-35 -33 -42 -34 -42 -2 0 16 -6 25 -15 25 -12 0 -15 -13 -15 -57 0 -62 -18 -64 -21 -3 -3 47 -15 60 -56 60 -18 0 -35 -6 -38 -12z"/>
<path d="M1290 2453 c-43 -13 -43 -13 -30 -28 11 -13 14 -13 26 2 7 10 14 13 14 7 0 -6 -7 -17 -16 -25 -10 -8 -13 -21 -9 -38 5 -21 4 -24 -6 -13 -18 17 -29 15 -29 -4 0 -13 7 -15 43 -9 45 7 65 20 53 32 -4 4 -11 1 -16 -7 -5 -8 -12 -11 -16 -8 -3 4 3 19 14 33 29 36 13 69 -28 58z"/>
<path d="M1145 2418 c-33 -10 -71 -22 -85 -26 -15 -5 -24 -14 -22 -24 3 -22 -16 -32 -33 -18 -11 9 -22 8 -50 -5 -32 -16 -34 -19 -18 -30 24 -18 10 -30 -16 -15 -19 10 -21 8 -22 -17 -1 -17 -3 -21 -6 -10 -5 17 -28 23 -37 9 -5 -8 66 -82 79 -82 4 0 5 16 2 36 -5 31 -4 35 11 29 9 -4 28 -10 41 -13 l24 -5 -23 41 c-13 23 -21 45 -17 48 4 4 26 -9 50 -29 25 -20 47 -34 49 -31 3 2 3 27 0 54 -5 50 5 63 27 36 6 -7 12 -25 13 -40 2 -24 6 -27 28 -23 45 10 85 28 74 35 -13 8 -36 73 -29 80 2 3 11 -1 20 -8 20 -16 34 -4 14 13 -11 11 -25 10 -74 -5z m19 -56 c9 -34 2 -52 -14 -36 -5 5 -13 25 -16 43 -9 45 17 38 30 -7z"/>
<path d="M1797 2412 c2 -11 -1 -30 -8 -43 l-12 -23 -8 23 c-5 12 -13 20 -18 16 -6 -3 -7 -15 -2 -27 5 -15 27 -28 72 -42 35 -12 69 -24 75 -28 21 -14 53 3 56 30 2 16 13 31 26 38 l23 11 -22 6 c-12 3 -32 -1 -45 -10 -27 -17 -32 -12 -9 11 14 14 13 16 -12 22 -15 4 -32 10 -38 14 -5 5 -27 11 -47 15 -33 6 -36 5 -31 -13z m58 -23 c4 -6 14 -8 22 -5 12 5 14 1 8 -21 -3 -16 -13 -35 -22 -43 -14 -13 -15 -13 -10 3 5 14 2 16 -18 11 -21 -5 -24 -3 -19 10 4 10 13 15 20 12 8 -3 14 -1 14 4 0 6 -4 10 -10 10 -5 0 -10 7 -10 15 0 17 16 20 25 4z m59 -74 c-4 -8 -11 -15 -16 -15 -6 0 -5 6 2 15 7 8 14 15 16 15 2 0 1 -7 -2 -15z"/>
<path d="M1980 2340 c0 -13 11 -13 30 0 12 8 11 10 -7 10 -13 0 -23 -4 -23 -10z"/>
<path d="M2030 2325 c0 -8 -9 -15 -19 -15 -32 0 -51 -11 -51 -29 0 -22 19 -41 41 -41 10 0 19 -3 21 -7 3 -8 84 -63 92 -63 3 0 17 -12 31 -26 25 -25 27 -25 40 -8 7 11 17 16 21 12 4 -4 1 -14 -6 -23 -7 -9 -10 -18 -6 -22 8 -9 35 28 36 49 0 9 8 21 18 27 16 9 16 11 -3 25 -22 17 -39 21 -31 8 6 -10 -30 -52 -44 -52 -6 0 -10 5 -10 10 0 6 -7 10 -15 10 -18 0 -10 26 17 57 20 21 20 21 0 32 -24 13 -33 14 -30 4 2 -13 -20 -60 -31 -68 -6 -3 -11 1 -11 9 0 9 -4 16 -10 16 -16 0 -12 13 14 41 23 25 23 26 4 38 -11 7 -21 11 -22 9 -1 -2 -11 -20 -21 -40 -19 -36 -35 -49 -35 -28 0 6 -9 10 -21 10 -11 0 -17 5 -14 10 3 6 15 10 25 10 25 0 51 27 44 45 -8 19 -24 19 -24 0z"/>
<path d="M804 2245 c-4 -9 -19 -22 -35 -31 -30 -15 -39 -34 -15 -34 15 0 51 -49 42 -58 -3 -3 -6 1 -6 8 0 10 -3 11 -11 3 -11 -11 -5 -33 10 -33 5 0 20 10 35 21 l27 21 -35 26 c-40 28 -47 47 -15 37 18 -6 20 -4 14 14 -4 15 -2 21 9 21 13 0 14 -5 5 -27 -13 -34 -5 -53 21 -53 24 0 56 27 45 38 -4 4 -10 1 -12 -5 -9 -26 -20 -12 -19 25 1 33 -2 37 -27 40 -18 2 -29 -2 -33 -13z"/>
<path d="M1450 2208 c-19 -11 -54 -31 -77 -44 -185 -105 -415 -309 -521 -464 -112 -163 -143 -281 -104 -401 30 -93 36 -156 23 -253 -10 -71 -44 -199 -76 -277 -5 -15 6 -16 109 -11 158 7 174 1 376 -135 14 -9 34 -25 45 -34 36 -31 154 -87 211 -100 47 -11 62 -10 108 4 54 18 139 70 245 151 32 25 80 58 107 73 48 27 53 27 204 28 85 0 170 -3 189 -7 29 -7 32 -6 26 10 -33 76 -76 223 -85 293 -12 93 -4 169 28 285 26 91 18 133 -49 270 -94 192 -346 435 -591 573 -21 12 -54 30 -73 41 -43 24 -51 24 -95 -2z m40 -431 l0 -404 -363 -2 -364 -2 8 54 c4 30 11 62 17 73 5 10 25 48 43 84 37 75 132 206 188 259 82 78 288 242 336 266 37 19 63 35 94 58 13 9 28 17 32 17 5 0 9 -181 9 -403z m134 346 c43 -25 144 -99 226 -167 97 -79 218 -206 279 -293 46 -67 91 -171 99 -231 l9 -62 -359 0 -358 0 0 405 0 405 41 -22 c23 -13 51 -28 63 -35z m-134 -1189 l0 -416 -41 7 c-70 12 -149 54 -263 140 -142 106 -217 135 -352 135 l-82 0 18 58 c9 31 26 101 36 155 16 86 16 108 5 184 -6 48 -17 95 -22 105 -26 48 -23 48 351 48 l350 0 0 -416z m740 408 c0 -4 -4 -12 -8 -17 -60 -72 -42 -384 30 -518 5 -11 8 -20 6 -22 -2 -1 -33 2 -70 7 -41 5 -101 5 -155 -1 -99 -10 -162 -36 -258 -106 -122 -89 -206 -145 -218 -145 -7 0 -18 -5 -25 -12 -9 -9 -12 81 -12 405 l0 417 355 0 c195 0 355 -4 355 -8z"/>
</g>
<g id="layer109" fill="#e6dfe2" stroke="none">
<path d="M0 1500 l0 -1500 1500 0 1500 0 0 1500 0 1500 -1500 0 -1500 0 0 -1500z m1620 1040 c146 -19 280 -49 435 -101 236 -79 383 -158 372 -200 -4 -13 11 -27 59 -55 66 -38 198 -154 233 -203 l20 -28 -42 21 c-32 15 -61 21 -119 21 -42 0 -79 -3 -83 -6 -3 -4 -1 -18 5 -33 11 -31 14 -196 3 -196 -5 0 -21 20 -38 44 -25 36 -38 45 -78 55 -52 12 -141 67 -132 81 3 5 20 7 38 4 l32 -5 -25 15 c-14 8 -39 15 -57 16 -19 0 -44 10 -61 25 -32 27 -114 67 -121 59 -2 -2 4 -13 14 -24 12 -13 20 -41 23 -78 l5 -57 -23 20 c-26 23 -65 97 -74 141 -4 18 -16 40 -26 49 -14 13 -17 22 -10 35 7 14 4 21 -13 32 -27 18 -97 42 -103 36 -2 -3 3 -21 11 -41 16 -39 20 -107 6 -107 -13 0 -60 73 -80 126 l-19 49 -73 12 c-41 6 -96 12 -124 12 l-50 1 83 -48 c151 -87 265 -175 403 -312 165 -164 224 -249 275 -393 20 -56 20 -177 0 -214 -28 -55 -39 -153 -26 -239 13 -88 60 -244 96 -318 13 -27 22 -51 20 -53 -2 -2 -30 4 -62 14 -45 14 -93 18 -204 18 -169 0 -171 -1 -345 -130 -146 -109 -193 -130 -285 -130 -98 1 -162 30 -330 149 -73 53 -147 97 -179 108 -66 22 -191 24 -276 4 -33 -8 -61 -13 -63 -12 -1 2 11 32 26 67 83 185 108 383 63 504 -68 184 24 393 281 641 120 115 246 212 365 281 128 73 127 72 63 72 -85 1 -259 -26 -322 -49 -32 -11 -65 -20 -75 -21 -13 0 -11 -3 7 -11 l25 -10 -25 -16 c-14 -10 -34 -26 -45 -38 -29 -30 -94 -70 -138 -84 -29 -9 -35 -15 -27 -25 8 -9 2 -19 -24 -39 -27 -20 -46 -26 -85 -26 -40 0 -56 -5 -78 -26 -19 -17 -22 -22 -8 -16 33 15 84 22 90 12 10 -15 -72 -67 -126 -80 -40 -10 -55 -20 -72 -46 -12 -19 -25 -34 -28 -34 -13 0 -20 139 -9 180 6 23 8 45 5 49 -4 3 -39 6 -78 6 -55 -1 -82 -6 -116 -24 l-43 -23 33 48 c36 49 153 156 220 201 21 14 39 34 39 43 0 60 266 193 510 255 198 51 389 66 560 45z m-430 -398 c-12 -27 -35 -62 -51 -78 l-29 -28 0 43 c0 51 29 111 67 139 l28 21 3 -24 c2 -13 -6 -46 -18 -73z m747 -4 c37 -39 53 -76 53 -125 0 -36 0 -36 -21 -17 -38 35 -95 174 -71 174 5 0 22 -15 39 -32z m-857 -62 c-13 -40 -66 -116 -80 -116 -29 0 3 102 48 152 34 38 37 39 40 19 2 -12 -2 -37 -8 -55z m-103 -47 c-7 -53 -75 -159 -88 -137 -5 9 -5 37 0 64 7 38 17 56 48 81 21 18 40 33 42 33 2 0 1 -18 -2 -41z m1187 -59 c28 -34 42 -87 31 -121 -7 -22 -8 -22 -22 -3 -38 50 -68 154 -44 154 5 0 21 -14 35 -30z m-1299 -22 c-11 -49 -55 -139 -66 -133 -5 4 -9 26 -9 50 0 35 6 52 31 80 39 44 53 45 44 3z m1415 -124 c0 -22 -6 -49 -14 -60 -14 -18 -15 -18 -24 7 -15 39 -25 117 -17 136 12 31 55 -33 55 -83z m-1530 -41 c-13 -58 -25 -67 -40 -27 -17 44 -11 81 18 115 l27 33 3 -34 c2 -19 -1 -59 -8 -87z m1650 37 c34 -17 90 -75 90 -93 0 -28 -98 23 -128 67 -36 53 -27 59 38 26z m-1760 -7 c0 -38 -89 -113 -135 -113 -21 0 -19 8 11 48 31 40 124 88 124 65z m1716 -59 c7 -25 -25 -91 -42 -87 -11 3 -18 97 -9 132 l7 26 19 -24 c11 -13 22 -34 25 -47z m-1676 -9 c4 -59 0 -105 -10 -105 -14 0 -40 55 -40 85 0 34 30 82 41 63 4 -7 8 -26 9 -43z m1780 -61 c26 -22 70 -90 70 -109 0 -13 -21 -2 -63 35 -76 67 -83 138 -7 74z m-64 -57 c-6 -32 -50 -86 -61 -75 -10 10 7 87 28 120 19 32 20 32 30 11 5 -12 7 -37 3 -56z m-1828 33 c-14 -40 -118 -132 -118 -105 0 19 44 87 70 109 44 36 62 35 48 -4z m61 -29 c11 -27 21 -61 21 -76 0 -23 -2 -24 -20 -15 -31 17 -53 67 -45 106 3 19 10 34 14 34 5 0 18 -22 30 -49z m1855 -82 c26 -31 52 -106 41 -118 -11 -10 -76 71 -82 102 -8 37 -19 34 -27 -7 -6 -32 -61 -94 -73 -82 -9 8 16 67 41 100 32 43 67 44 100 5z m-1940 -16 c-10 -42 -29 -75 -58 -102 -33 -31 -40 -23 -26 28 19 72 101 144 84 74z m81 -54 c10 -21 15 -42 12 -45 -21 -22 -77 51 -77 100 l0 29 24 -22 c13 -12 31 -40 41 -62z m1848 -61 c37 -49 41 -142 5 -101 -23 27 -38 59 -38 82 0 29 -12 26 -32 -8 -9 -16 -30 -37 -47 -46 -28 -14 -31 -14 -31 0 0 8 18 35 41 60 46 50 72 53 102 13z m-1864 -33 c23 -25 41 -52 41 -61 0 -26 -62 15 -82 55 l-17 34 -11 -46 c-7 -25 -23 -56 -36 -68 l-24 -22 0 37 c0 57 33 110 69 113 12 1 36 -16 60 -42z m1836 -95 c14 -28 19 -59 16 -100 l-2 -25 -19 24 c-11 13 -23 41 -26 63 -6 38 -7 38 -22 17 -15 -22 -80 -54 -89 -45 -10 9 27 56 59 76 41 25 67 21 83 -10z m-1842 -1 c31 -16 77 -61 77 -75 0 -28 -75 10 -97 48 -12 22 -12 22 -13 -9 0 -34 -28 -103 -42 -103 -17 0 -12 84 8 123 16 29 33 33 67 16z m1797 -111 c0 -21 -10 -40 -37 -66 -40 -41 -49 -34 -38 25 7 38 49 88 65 78 6 -3 10 -20 10 -37z m-1766 -9 c19 -22 26 -42 26 -71 0 -40 0 -40 -22 -26 -34 23 -61 74 -54 103 8 33 19 31 50 -6z"/>
<path d="M1401 2456 c-16 -19 -11 -96 6 -96 9 0 13 15 13 45 0 33 5 47 16 52 20 8 34 -13 34 -53 0 -17 7 -37 15 -44 13 -11 14 -8 8 21 -15 78 -18 84 -50 87 -17 2 -35 -3 -42 -12z"/>
<path d="M1510 2420 c0 -27 3 -50 7 -50 4 0 20 12 35 27 l28 27 0 -27 c0 -17 5 -27 15 -27 11 0 15 12 15 52 l0 52 -28 -27 c-35 -33 -42 -34 -42 -2 0 16 -6 25 -15 25 -11 0 -15 -12 -15 -50z"/>
<path d="M1640 2433 c0 -16 -3 -38 -6 -50 -5 -19 -1 -23 31 -29 29 -5 40 -3 47 9 4 9 15 23 23 31 17 16 19 32 6 40 -5 3 -21 -12 -36 -34 -15 -22 -32 -40 -37 -40 -5 0 -6 22 -2 50 6 42 4 50 -10 50 -11 0 -16 -9 -16 -27z"/>
<path d="M1267 2443 c-15 -14 -6 -22 13 -11 29 18 35 3 11 -28 -16 -20 -18 -30 -10 -40 13 -16 49 -19 49 -4 0 5 -7 7 -15 4 -20 -8 -19 3 4 33 11 13 17 31 14 39 -5 14 -54 20 -66 7z"/>
<path d="M1167 2423 c-14 -4 -17 -11 -13 -26 4 -12 9 -34 12 -49 4 -16 13 -28 22 -28 15 0 14 15 -4 79 -6 21 -4 23 14 19 12 -4 22 -2 22 3 0 9 -22 10 -53 2z"/>
<path d="M1803 2424 c2 -3 -1 -25 -9 -49 -12 -41 -12 -44 7 -50 11 -4 23 -4 26 -1 4 3 1 6 -5 6 -6 0 -9 7 -5 16 3 8 12 13 19 10 8 -3 14 -1 14 4 0 6 -4 10 -10 10 -5 0 -10 9 -10 20 0 23 10 26 28 8 9 -9 12 -9 12 0 0 7 -1 12 -3 12 -1 0 -17 4 -36 10 -19 5 -31 7 -28 4z"/>
<path d="M1095 2383 c4 -10 12 -31 18 -48 13 -38 11 -37 29 -30 13 5 12 12 -5 51 -12 24 -27 44 -35 44 -10 0 -12 -6 -7 -17z"/>
<path d="M1893 2393 c3 -2 -3 -25 -13 -49 l-19 -43 34 -7 c41 -7 58 1 50 26 -4 14 2 23 22 34 27 15 27 15 5 16 -13 0 -32 -5 -43 -11 -18 -9 -19 -8 -10 9 9 16 7 21 -10 25 -12 3 -19 3 -16 0z m25 -75 c-2 -6 -10 -14 -16 -16 -7 -2 -10 2 -6 12 7 18 28 22 22 4z"/>
<path d="M1045 2382 c-5 -4 -10 -14 -10 -22 0 -11 -9 -14 -29 -12 -29 3 -29 3 13 -32 24 -20 45 -36 47 -36 2 0 4 25 4 55 0 54 -5 62 -25 47z"/>
<path d="M1747 2360 c3 -11 9 -20 14 -20 11 0 11 3 3 24 -9 23 -23 20 -17 -4z"/>
<path d="M1246 2356 c3 -9 11 -16 16 -16 13 0 5 23 -10 28 -7 2 -10 -2 -6 -12z"/>
<path d="M942 2333 c-10 -4 -10 -8 -1 -19 16 -20 5 -28 -20 -14 -19 10 -21 8 -21 -17 0 -21 -3 -24 -12 -15 -26 26 -27 10 -1 -23 15 -19 31 -35 36 -35 4 0 7 16 7 35 l0 36 31 -16 c17 -9 33 -14 36 -12 4 5 -34 88 -40 86 -1 0 -8 -3 -15 -6z"/>
<path d="M2030 2321 c0 -4 -15 -12 -32 -17 -39 -12 -48 -38 -18 -54 17 -9 25 -9 34 0 8 9 7 11 -6 8 -32 -6 -23 16 10 24 22 6 32 14 32 28 0 11 -4 20 -10 20 -5 0 -10 -4 -10 -9z"/>
<path d="M2053 2266 c-17 -35 -19 -45 -9 -49 9 -4 20 9 31 34 10 21 22 39 27 39 5 0 6 5 3 10 -13 21 -32 9 -52 -34z"/>
<path d="M2140 2263 c0 -5 -11 -21 -25 -38 -21 -25 -26 -28 -35 -15 -5 8 -10 10 -10 4 0 -7 12 -20 27 -30 15 -9 36 -25 47 -35 14 -13 24 -16 37 -9 25 14 32 12 25 -5 -3 -8 -1 -15 4 -15 6 0 10 7 10 15 0 9 7 26 16 39 22 34 1 42 -30 11 -28 -28 -38 -30 -67 -15 -19 11 -19 12 5 47 24 35 26 53 5 53 -5 0 -9 -3 -9 -7z"/>
<path d="M833 2214 c-2 -48 17 -68 40 -45 7 7 8 11 2 9 -15 -5 -19 5 -11 30 7 21 -7 52 -23 52 -3 0 -7 -21 -8 -46z"/>
<path d="M795 2231 c-3 -5 -1 -12 5 -16 5 -3 10 1 10 9 0 18 -6 21 -15 7z"/>
<path d="M1395 2176 c-299 -177 -560 -443 -636 -649 -34 -90 -35 -151 -5 -245 16 -51 26 -106 26 -143 0 -78 -32 -235 -65 -318 -14 -36 -25 -65 -25 -65 0 -1 62 -1 138 -1 163 0 180 -6 336 -118 55 -40 121 -84 146 -99 49 -28 140 -58 176 -58 48 0 133 43 249 126 193 139 187 137 347 142 75 2 158 -1 185 -6 26 -6 49 -10 50 -8 1 1 -11 35 -27 75 -71 173 -85 351 -39 490 32 94 23 166 -31 277 -82 165 -218 317 -422 469 -106 80 -280 186 -302 184 -6 0 -51 -24 -101 -53z m95 -399 l0 -404 -363 -2 -364 -2 8 58 c24 180 245 451 516 634 89 60 185 119 196 119 4 0 7 -181 7 -403z m233 279 c286 -204 481 -446 505 -624 l9 -62 -359 0 -358 0 0 406 0 405 58 -31 c31 -17 97 -59 145 -94z m-233 -1122 l0 -417 -38 7 c-63 10 -130 44 -247 125 -196 137 -230 151 -374 151 -75 0 -82 2 -76 18 3 9 18 60 32 112 40 148 36 288 -12 403 -7 16 14 17 354 17 l361 0 0 -416z m736 404 c-2 -7 -12 -37 -22 -67 -32 -105 -7 -341 50 -471 5 -13 -15 -15 -151 -15 -182 0 -191 -3 -338 -112 -121 -89 -167 -119 -208 -136 l-37 -16 0 415 0 414 356 0 c281 0 355 -3 350 -12z"/>
<path d="M757 2204 c-4 -4 7 -24 23 -44 16 -20 26 -41 22 -45 -4 -4 3 -2 15 6 l22 13 -32 37 c-34 39 -40 43 -50 33z"/>
</g>
<g id="layer110" fill="#ffffff" stroke="none">
<path d="M0 1500 l0 -1500 1500 0 1500 0 0 1500 0 1500 -1500 0 -1500 0 0 -1500z m1675 1036 c17 -3 46 -8 65 -11 75 -10 109 -19 305 -81 61 -20 125 -42 144 -51 18 -8 46 -19 62 -23 16 -5 63 -30 105 -56 64 -40 75 -51 71 -70 -2 -14 2 -24 12 -28 58 -20 191 -131 289 -239 31 -34 28 -40 -11 -18 -54 30 -131 46 -174 35 -34 -8 -38 -12 -36 -39 3 -40 6 -154 4 -182 -1 -24 -21 -33 -21 -10 0 8 -11 24 -25 37 -14 13 -25 29 -25 37 0 7 -11 13 -25 13 -55 0 -183 78 -156 95 6 3 16 3 22 -1 7 -4 10 -1 7 7 -3 8 -23 16 -45 19 -23 4 -54 18 -72 33 -18 15 -45 30 -59 33 -15 4 -33 11 -39 17 -9 6 -13 6 -13 -2 0 -6 4 -11 9 -11 14 0 31 -58 31 -103 l0 -40 -25 23 c-28 26 -75 121 -75 151 0 11 -4 19 -10 19 -12 0 -13 -16 -1 -38 13 -25 2 -72 -15 -65 -30 11 -104 183 -79 183 3 0 19 -10 36 -22 25 -19 31 -20 39 -8 5 8 7 17 5 21 -6 9 -65 36 -97 44 l-28 7 15 -42 c16 -46 20 -110 7 -110 -15 0 -57 64 -79 120 -12 30 -26 54 -32 53 -6 -2 -21 1 -35 6 -26 11 -186 25 -186 17 0 -2 26 -19 58 -37 93 -53 234 -148 282 -191 40 -35 207 -199 257 -253 48 -50 120 -184 152 -278 18 -56 21 -178 4 -200 -6 -6 -18 -45 -28 -85 -15 -63 -16 -83 -5 -155 14 -95 61 -250 98 -320 13 -26 22 -50 19 -53 -3 -3 -42 4 -88 15 -111 26 -306 24 -359 -4 -44 -22 -123 -76 -131 -88 -3 -5 -18 -16 -32 -25 -13 -9 -56 -38 -93 -63 -167 -111 -272 -93 -538 91 -12 8 -37 27 -56 41 -19 14 -63 37 -96 52 -55 23 -72 25 -160 22 -55 -2 -119 -8 -144 -13 -25 -6 -47 -9 -49 -7 -2 2 5 21 16 42 18 35 37 91 77 228 32 113 27 230 -16 335 -17 42 -16 130 2 185 23 72 89 195 135 253 46 58 178 195 234 244 28 23 31 32 31 82 0 59 12 87 59 139 19 20 21 27 9 27 -24 0 -146 -49 -124 -50 18 0 18 -2 -4 -25 -13 -14 -28 -25 -33 -25 -4 0 -21 -13 -37 -28 -25 -25 -105 -71 -150 -86 -12 -3 -11 -5 3 -5 26 -1 20 -13 -24 -43 -25 -18 -52 -28 -77 -28 -48 0 -82 -10 -82 -22 0 -6 14 -8 35 -5 19 3 37 2 40 -3 10 -15 -72 -67 -125 -80 -48 -12 -90 -49 -90 -79 0 -18 -20 -12 -21 7 0 9 -3 43 -5 75 -2 32 1 77 6 99 6 22 9 43 5 46 -10 10 -118 9 -145 -1 -22 -8 -63 -25 -82 -34 -4 -2 -1 8 7 23 23 45 215 221 257 237 11 4 18 17 18 31 0 32 27 52 148 114 179 92 394 160 556 178 21 2 41 6 44 8 6 7 340 0 377 -8z m-595 -461 c-6 -23 -29 -62 -50 -86 -39 -43 -39 -44 -40 -17 0 48 31 122 64 150 37 31 44 19 26 -47z m-106 -70 c-18 -63 -73 -134 -85 -112 -5 8 -5 37 0 63 7 39 17 56 48 81 21 18 41 29 45 25 4 -4 1 -30 -8 -57z m1218 -86 c10 -36 5 -89 -10 -89 -18 0 -77 161 -64 175 11 11 63 -50 74 -86z m-1327 29 c-11 -52 -55 -139 -67 -132 -6 4 -8 29 -6 61 4 45 10 59 34 78 39 33 47 31 39 -7z m1415 -124 c0 -22 -6 -49 -14 -60 -14 -18 -15 -18 -24 7 -15 39 -25 117 -17 136 12 31 55 -33 55 -83z m-1531 -56 c-14 -44 -26 -48 -39 -12 -17 44 -11 81 18 115 l27 33 3 -49 c2 -28 -2 -67 -9 -87z m1659 48 c37 -23 98 -93 90 -102 -7 -6 -70 18 -94 36 -23 18 -64 69 -64 81 0 16 30 9 68 -15z m-68 -26 c27 -53 25 -74 -10 -112 l-29 -33 -1 70 c0 64 7 115 16 115 2 0 13 -18 24 -40z m-1705 8 c-11 -36 -56 -77 -97 -90 -21 -6 -41 -8 -44 -5 -10 10 36 66 75 92 48 32 75 33 66 3z m45 -43 c5 -116 -5 -142 -35 -85 -20 38 -19 84 1 116 21 31 32 21 34 -31z m1752 -48 c14 -7 38 -28 55 -47 31 -36 51 -90 34 -90 -19 0 -110 96 -115 123 -7 31 -7 31 26 14z m-36 -32 c3 -14 3 -37 -1 -52 -7 -29 -42 -73 -58 -73 -11 0 1 72 19 116 17 40 31 43 40 9z m-1816 -1 c0 -17 -103 -124 -120 -124 -23 0 3 57 45 98 45 43 75 54 75 26z m49 -45 c12 -28 21 -63 19 -77 l-3 -27 -27 27 c-31 30 -43 67 -34 103 9 37 21 31 45 -26z m1853 -77 c26 -26 55 -108 44 -120 -12 -12 -76 62 -82 95 -8 43 -20 42 -28 -1 -6 -32 -61 -94 -73 -82 -9 8 16 67 41 100 31 41 65 44 98 8z m-1938 -19 c-4 -16 -12 -39 -19 -53 -16 -30 -63 -76 -70 -68 -12 12 15 92 41 119 36 38 57 38 48 2z m74 -37 c36 -67 27 -99 -15 -53 -29 31 -43 61 -43 91 0 23 2 25 18 15 10 -6 28 -30 40 -53z m1858 -81 c35 -53 36 -137 2 -98 -24 28 -49 83 -43 93 3 6 3 10 -2 10 -4 0 -15 -13 -25 -29 -17 -31 -78 -70 -78 -51 0 21 23 55 59 86 40 35 58 33 87 -11z m-1861 -37 c59 -65 61 -82 7 -54 -34 17 -59 45 -64 71 -3 14 -8 7 -17 -25 -12 -41 -48 -98 -63 -99 -11 -1 4 83 23 120 27 53 58 50 114 -13z m1843 -122 c13 -45 10 -81 -7 -81 -15 0 -39 55 -40 93 -1 22 -2 21 -28 -7 -16 -16 -44 -33 -63 -37 l-35 -7 26 34 c15 19 44 44 65 56 l39 23 17 -21 c10 -11 22 -35 26 -53z m-1846 29 c44 -24 78 -68 64 -82 -11 -11 -76 29 -91 56 l-14 26 -1 -32 c0 -55 -49 -136 -51 -85 0 9 -2 26 -4 36 -4 22 35 106 50 106 1 0 23 -11 47 -25z m1788 -104 c0 -30 -30 -75 -61 -91 -17 -10 -19 -7 -19 29 0 29 7 47 30 71 33 35 50 32 50 -9z m-1766 -12 c18 -21 26 -42 26 -70 0 -45 -8 -48 -37 -16 -32 35 -45 67 -39 93 8 32 19 30 50 -7z"/>
<path d="M1510 2419 c0 -66 23 -62 27 4 3 37 0 47 -12 47 -11 0 -15 -12 -15 -51z"/>
<path d="M1405 2450 c-12 -20 -14 -90 -2 -90 8 0 12 18 12 50 0 53 0 56 -10 40z"/>
<path d="M1645 2440 c3 -10 2 -27 -3 -37 -5 -10 -7 -24 -5 -31 7 -18 33 33 33 64 0 15 -6 24 -16 24 -11 0 -13 -6 -9 -20z"/>
<path d="M1566 2429 c-15 -12 -25 -24 -22 -27 3 -2 12 0 20 7 11 9 15 7 20 -14 9 -37 26 -31 26 9 0 45 -11 51 -44 25z"/>
<path d="M1711 2401 c-12 -24 -20 -45 -18 -48 8 -7 49 66 45 79 -2 6 -14 -8 -27 -31z"/>
<path d="M1205 2420 c3 -5 8 -10 11 -10 2 0 4 5 4 10 0 6 -5 10 -11 10 -5 0 -7 -4 -4 -10z"/>
<path d="M1296 2405 c-23 -21 -26 -28 -16 -40 14 -17 35 -20 25 -4 -4 5 1 19 10 29 28 31 12 44 -19 15z"/>
<path d="M1807 2414 c3 -8 0 -20 -6 -28 -6 -7 -8 -16 -4 -19 3 -4 0 -13 -7 -22 -9 -11 -9 -15 -1 -15 24 0 46 86 25 94 -8 3 -11 0 -7 -10z"/>
<path d="M1160 2406 c0 -23 22 -76 31 -76 12 0 12 2 -7 38 -8 18 -13 36 -9 42 3 5 1 10 -4 10 -6 0 -11 -6 -11 -14z"/>
<path d="M1855 2400 c3 -5 8 -10 11 -10 2 0 4 5 4 10 0 6 -5 10 -11 10 -5 0 -7 -4 -4 -10z"/>
<path d="M1893 2393 c3 -2 0 -24 -8 -48 -11 -38 -11 -45 2 -49 41 -16 75 2 53 29 -9 11 -7 16 10 25 26 14 20 24 -10 15 -15 -5 -20 -13 -18 -33 2 -19 -2 -27 -16 -30 -16 -3 -18 0 -12 25 4 15 14 35 22 44 13 15 12 17 -7 22 -11 3 -19 3 -16 0z"/>
<path d="M1049 2388 c-6 -17 -4 -98 2 -98 5 0 9 8 9 19 0 10 3 33 6 50 4 20 3 31 -5 31 -6 0 -11 -1 -12 -2z"/>
<path d="M1107 2368 c3 -13 10 -28 15 -35 5 -7 6 -18 2 -24 -5 -9 -2 -10 10 -6 10 4 20 7 22 7 3 0 -4 13 -15 29 -12 16 -21 34 -21 40 0 6 -4 11 -9 11 -5 0 -7 -10 -4 -22z"/>
<path d="M1245 2360 c3 -5 8 -10 11 -10 2 0 4 5 4 10 0 6 -5 10 -11 10 -5 0 -7 -4 -4 -10z"/>
<path d="M983 2343 c4 -3 10 -3 14 0 3 4 0 7 -7 7 -7 0 -10 -3 -7 -7z"/>
<path d="M1990 2340 c0 -5 7 -7 15 -4 8 4 15 8 15 10 0 2 -7 4 -15 4 -8 0 -15 -4 -15 -10z"/>
<path d="M940 2315 c17 -21 7 -29 -19 -16 -19 11 -20 9 -19 -34 3 -50 18 -63 18 -15 0 34 4 35 40 15 38 -22 40 -18 17 25 -12 22 -28 40 -36 40 -11 0 -11 -3 -1 -15z"/>
<path d="M1981 2298 c-23 -8 -21 -30 2 -23 7 2 25 6 41 10 15 3 25 9 22 12 -10 10 -41 10 -65 1z"/>
<path d="M2057 2260 c-29 -45 -20 -55 12 -12 12 15 26 33 31 40 8 9 7 12 -3 12 -7 0 -25 -18 -40 -40z"/>
<path d="M1293 2259 c-75 -9 -83 -13 -83 -42 0 -39 -34 -120 -64 -149 -39 -40 -26 -46 17 -8 39 34 152 109 240 159 31 18 55 37 52 42 -7 10 -74 10 -162 -2z"/>
<path d="M2125 2237 c-10 -19 -16 -40 -13 -47 3 -11 48 59 48 75 0 16 -20 0 -35 -28z"/>
<path d="M830 2251 c0 -5 5 -11 11 -13 7 -2 7 -12 0 -30 -8 -20 -7 -29 5 -39 12 -10 17 -10 27 0 9 10 8 11 -5 6 -13 -5 -18 -2 -18 12 0 10 5 24 12 31 8 8 8 15 -2 27 -14 17 -30 20 -30 6z"/>
<path d="M1470 2215 c-7 -8 -18 -15 -24 -15 -6 0 -35 -16 -65 -35 -29 -19 -55 -35 -58 -35 -4 0 -22 -12 -42 -27 -20 -16 -52 -39 -72 -53 -112 -77 -283 -246 -351 -348 -10 -15 -31 -47 -48 -72 -66 -100 -94 -267 -57 -340 45 -88 22 -354 -43 -487 -26 -55 -26 -56 13 -47 50 11 215 7 251 -6 65 -25 92 -40 136 -72 192 -142 299 -198 376 -198 49 0 133 43 249 127 181 130 181 130 232 138 70 11 251 9 303 -3 24 -6 46 -9 48 -8 2 2 -9 28 -23 57 -67 140 -95 409 -51 494 24 46 30 112 16 174 -7 31 -16 61 -20 66 -4 6 -10 21 -13 35 -6 24 -95 165 -130 205 -66 77 -184 191 -249 241 -107 83 -164 124 -171 124 -3 0 -29 16 -58 35 -30 19 -59 35 -65 35 -6 0 -17 7 -24 15 -7 8 -20 15 -30 15 -10 0 -23 -7 -30 -15z m20 -438 l0 -404 -363 -2 -363 -2 2 38 c3 50 36 135 80 209 20 32 42 68 48 80 6 12 19 29 29 38 9 10 29 33 44 53 27 35 286 263 299 263 4 0 23 12 43 28 20 15 52 35 71 46 19 10 46 27 60 37 51 38 50 48 50 -384z m160 329 c102 -64 155 -103 209 -151 41 -36 200 -196 221 -221 25 -31 90 -134 90 -143 0 -5 6 -14 14 -20 19 -16 48 -107 50 -158 l1 -43 -357 0 -358 0 0 405 c0 381 1 404 18 398 9 -3 60 -33 112 -67z m-160 -1172 l0 -416 -37 5 c-63 7 -101 27 -273 142 -185 124 -217 136 -357 132 -46 -1 -83 -1 -83 0 0 1 8 26 18 55 32 92 40 121 53 207 12 79 12 89 -10 175 -13 50 -26 97 -28 104 -4 9 71 12 356 12 l361 0 0 -416z m734 389 c-4 -16 -12 -34 -18 -42 -18 -23 -13 -263 6 -350 10 -40 21 -78 26 -85 5 -6 12 -22 15 -36 l6 -25 -157 0 c-168 -1 -183 -4 -258 -61 -17 -13 -36 -24 -41 -24 -6 0 -13 -7 -17 -15 -3 -8 -12 -15 -21 -15 -8 0 -15 -5 -15 -10 0 -6 -8 -13 -17 -17 -10 -3 -28 -15 -40 -26 -12 -11 -31 -25 -41 -31 -11 -6 -31 -19 -44 -29 -14 -10 -40 -22 -57 -27 l-31 -9 0 415 0 414 355 0 355 0 -6 -27z"/>
<path d="M2070 2211 c0 -6 4 -13 10 -16 6 -3 7 1 4 9 -7 18 -14 21 -14 7z"/>
<path d="M768 2205 c-8 -8 17 -55 34 -66 7 -5 20 -9 28 -8 10 0 6 7 -11 22 -14 12 -30 30 -36 40 -5 10 -12 15 -15 12z"/>
<path d="M2197 2174 c-22 -14 -36 -28 -33 -31 8 -8 74 28 80 44 7 18 -4 15 -47 -13z"/>
<path d="M624 1908 c-4 -7 -3 -8 4 -4 12 7 16 16 8 16 -3 0 -8 -5 -12 -12z"/>
</g>


</svg>